<ttFont>
<head>
    <!-- Most of this table will be recalculated by the compiler -->
    <tableVersion value="1.0"/>
    <fontRevision value="1.0"/>
    <checkSumAdjustment value="0x3ba7b042"/>
    <magicNumber value="0x5f0f3cf5"/>
    <flags value="00000000 00000011"/>
    <unitsPerEm value="2048"/>
    <created value="Tue May 30 14:31:57 2017"/>
    <modified value="Wed May 31 02:50:23 2017"/>
    <xMin value="-610"/>
    <yMin value="-516"/>
    <xMax value="2835"/>
    <yMax value="2162"/>
<macStyle value="00000000 00000010"/>
    <lowestRecPPEM value="3"/>
    <fontDirectionHint value="2"/>
    <indexToLocFormat value="0"/>
    <glyphDataFormat value="0"/>
  </head>
          <CharString index="0">
            rmoveto
            142 37 102 107 143 hhcurveto
            150 68 -104 -115 -10 0 -12 -1 -8 hvcurveto
            -302 -662 rmoveto
            245 191 150 206 55 89 callgsubr
            -96 -39 -88 -63 -124 hhcurveto
            -142 -90 104 161 11 0 12 1 11 hvcurveto
            750 hlineto
            9 49 3 60 49 vvcurveto
            277 -175 175 -271 -325 -225 -277 -355 -283 164 -191 294 vhcurveto
            return
          </CharString>
          <CharString index="1">
            rmoveto
            219 38 callgsubr
            -291 -219 -140 160 251 346 209 282 291 hvcurveto
            -145 -1265 rmoveto
            -54 callsubr
            369 -239 255 -381 -438 -328 -375 -492 -369 240 -255 378 hvcurveto
            return
          </CharString>
          <CharString index="2">
            184 rmoveto
            -137 -88 108 165 240 134 181 185 137 88 -108 -165 -238 -135 -183 -184 hvcurveto
            101 900 rmoveto
            -330 -244 -273 -360 -284 185 -189 282 330 244 273 361 284 -185 188 -282 hvcurveto
            return
          </CharString>
          <CharString index="3">
            246 708 -24 rmoveto
            351 227 181 305 65 hvcurveto
            209 981 rlineto
            -261 hlineto
            -197 -926 rlineto
            -195 -42 -139 -113 -185 hhcurveto
            -193 -105 97 156 -5 hvcurveto
            -1 34 4 39 9 40 183 868 rcurveline
            -261 hlineto
            -184 -877 -9 -43 -5 -44 1 -41 rlinecurve
            -263 1 193 -199 344 hhcurveto
            return
          </CharString>
          <CharString index="4">
            49 callgsubr
            5 hlineto
            75 -604 rlineto
            -410 hlineto
            474 -573 rmoveto
            255 hlineto
            -200 1443 119 callgsubr
            -822 -34 callsubr
            277 hlineto
            204 369 rlineto
            534 hlineto
            return
          </CharString>
          <CharString index="5">
            -281 7 243 -167 329 hhcurveto
            354 203 209 254 192 -118 115 -246 75 hvcurveto
            -116 36 rlineto
            -156 48 -66 58 93 vvcurveto
            102 94 93 177 175 108 -88 -128 6 vhcurveto
            246 hlineto
            269 -1 -218 163 -318 hhcurveto
            -312 -220 -176 -263 -196 120 -120 240 -75 hvcurveto
            113 -35 rlineto
            165 -51 61 -54 -103 vvcurveto
            -128 -122 -74 -165 -188 -127 96 136 -17 vhcurveto
            return
          </CharString>
          <CharString index="6">
            rmoveto
            -674 hlineto
            88 404 rlineto
            636 -12 callgsubr
            -637 -13 callsubr
            673 -31 callsubr
            -935 -97 callsubr
            935 hlineto
            return
          </CharString>
          <CharString index="7">
            -388 rmoveto
            205 137 77 243 132 hvcurveto
            624 1130 rlineto
            -265 hlineto
            -421 -834 rlineto
            -5 hlineto
            -85 834 -36 callsubr
            151 -1051 rlineto
            -2 -23 -48 -2 vvcurveto
            -109 -45 -69 -36 -82 hhcurveto
            -28 -55 4 6 -15 hvcurveto
            -38 -201 rlineto
            -5 16 80 -6 32 hhcurveto
            return
          </CharString>
          <CharString index="8" raw="1">
            1c04cf2a 1d0b  
          </CharString>
          <CharString index="9">
            245 hlineto
            134 632 rlineto
            144 31 111 100 140 hhcurveto
            124 77 -74 -107 -27 -4 -29 -7 -34 hvcurveto
            -131 -605 rlineto
            244 hlineto
            140 646 rlineto
            9 45 5 43 38 vvcurveto
            171 -131 139 -203 -159 -119 -79 -104 -65 vhcurveto
            -6 hlineto
            117 544 rlineto
            -245 hlineto
            return
          </CharString>
          <CharString index="10">
            -96 callsubr
            rlineto
            return
          </CharString>
          <CharString index="11">
            hlineto
            -89 callsubr
            return
          </CharString>
          <CharString index="12">
            rmoveto
            -191 hlineto
            -340 -311 rlineto
            209 hlineto
            206 192 rlineto
            7 hlineto
            124 -192 rlineto
            193 hlineto
            return
          </CharString>
          <CharString index="13">
            -95 callsubr
            endchar
          </CharString>
          <CharString index="14">
            274 1488 755 rmoveto
            -599 88 callsubr
            346 hlineto
            -7 -36 rlineto
            -190 -41 -157 -128 -200 hhcurveto
            -236 -128 165 246 308 156 323 343 194 124 -113 -169 12 hvcurveto
            253 hlineto
            6 1 8 6 vvcurveto
            274 -6 -226 213 -348 hhcurveto
            -504 -262 -435 -431 -371 232 -254 379 350 252 209 372 74 hvcurveto
            return
          </CharString>
          <CharString index="15">
            rmoveto
            -337 -226 -269 -375 -273 165 -189 291 247 198 165 226 44 hvcurveto
            -236 hlineto
            -111 -37 -89 -70 -120 hhcurveto
            -130 -86 100 162 250 127 174 181 132 77 -84 -109 3 hvcurveto
            236 hlineto
            6 0 0 18 vvcurveto
            203 -162 176 -278 vhcurveto
            return
          </CharString>
          <CharString index="16">
            -69 callsubr
            -264 hlineto
            -128 -598 rlineto
            -692 hlineto
            128 598 rlineto
            -264 -97 callsubr
            264 hlineto
            133 624 rlineto
            693 hlineto
            -134 -624 rlineto
            return
          </CharString>
          <CharString index="17">
            -69 callsubr
            -261 -97 callsubr
            return
          </CharString>
          <CharString index="18">
            -307 -1443 return
          </CharString>
          <CharString index="19">
            333 1284 830 rmoveto
            -347 -210 -281 -291 -219 -140 160 251 346 209 282 291 63 callgsubr
            vhcurveto
            263 13 rmoveto
            133 -34 122 -63 96 vhcurveto
            2 6 rlineto
            -3 4 19 -4 11 hhcurveto
            94 83 60 114 23 hvcurveto
            54 260 rlineto
            -206 hlineto
            -38 -185 rlineto
            -64 -13 -31 -25 -67 -121 -64 114 -273 hhcurveto
            -42 callgsubr
            hvcurveto
            return
          </CharString>
          <CharString index="20">
            rmoveto
            67 50 9 10 26 hvcurveto
            40 190 rlineto
            -3 -7 -21 -3 -16 hhcurveto
            -33 -21 17 29 -1 hvcurveto
            12 3 19 4 17 vhcurveto
            246 1156 -36 callsubr
            -261 -1221 rlineto
            -5 -27 -3 -25 -21 vvcurveto
            -94 2 67 -65 109 hhcurveto
            return
          </CharString>
          <CharString index="21">
            99 776 158 rmoveto
            6 hlineto
            -35 -158 52 callsubr
            190 892 rlineto
            81 hlineto
            106 84 63 111 23 hvcurveto
            47 217 rlineto
            -206 hlineto
            -30 -142 rlineto
            -58 -12 -31 -21 -67 hhcurveto
            -205 hlineto
            -133 -626 rlineto
            -146 -32 -107 -99 -143 hhcurveto
            -125 -63 58 118 23 4 43 7 32 hvcurveto
            127 597 -7 callsubr
            -636 rlineto
            -9 -43 -6 -59 -43 vvcurveto
            -174 125 -129 203 158 131 84 96 55 vhcurveto
            return
          </CharString>
          <CharString index="22">
            rmoveto
            -194 -38 117 -141 209 hhcurveto
            234 148 141 194 38 hvcurveto
            -179 hlineto
            -105 -24 -81 -88 -113 hhcurveto
            -110 -47 88 105 21 hvcurveto
            endchar
          </CharString>
          <CharString index="23">
            rmoveto
            51 callgsubr
            -89 -71 -109 hhcurveto
            -94 -56 53 23 callsubr
            -159 hlineto
            -5 -21 -4 -24 -25 vvcurveto
            -145 115 -104 101 callgsubr
            147 129 190 43 vhcurveto
            return
          </CharString>
          <CharString index="24">
            hmoveto
            323 222 191 268 145 -97 117 -157 28 hvcurveto
            1 6 rlineto
            186 44 136 144 186 vvcurveto
            186 -157 128 -249 vhcurveto
            -562 -97 callsubr
            523 1248 rmoveto
            251 hlineto
            156 83 -59 -111 -137 -128 -97 -189 hvcurveto
            -259 hlineto
            -137 -639 rmoveto
            96 446 rlineto
            287 hlineto
            171 88 -67 -126 -147 -129 -106 -191 hvcurveto
            return
          </CharString>
          <CharString index="25">
            224 680 -24 rmoveto
            401 282 281 449 58 hvcurveto
            456 67 -217 305 -394 hhcurveto
            -327 -246 -188 -313 -82 hvcurveto
            255 hlineto
            169 70 140 101 166 hhcurveto
            208 125 -153 -246 -7 hvcurveto
            -575 hlineto
            -44 -208 rlineto
            592 hlineto
            -265 -62 -167 -157 -223 hhcurveto
            -172 -119 93 156 -27 hvcurveto
            -257 hlineto
            -280 12 231 -200 312 hhcurveto
            return
          </CharString>
          <CharString index="26">
            rmoveto
            332 312 rlineto
            -212 hlineto
            -199 -190 rlineto
            -6 hlineto
            -117 190 rlineto
            -190 hlineto
            200 -312 rlineto
            endchar
          </CharString>
          <CharString index="27">
            -98 139 712 rmoveto
            233 hlineto
            105 48 86 61 111 hhcurveto
            144 84 -96 -152 -1 hvcurveto
            1 0 1 0 vhcurveto
            -408 hlineto
            -37 -175 rlineto
            423 hlineto
            -159 -30 -114 -114 -158 hhcurveto
            -116 -76 68 96 -8 hvcurveto
            -234 hlineto
            -213 9 145 -157 274 hhcurveto
            357 218 286 367 279 -176 174 -273 -254 -177 -141 -231 -70 hvcurveto
            return
          </CharString>
          <CharString index="28">
            rmoveto
            -670 hlineto
            -30 -139 rlineto
            671 hlineto
            endchar
          </CharString>
          <CharString index="29">
            rmoveto
            -191 hlineto
            -334 -312 rlineto
            209 hlineto
            198 188 rlineto
            7 hlineto
            117 -188 rlineto
            194 hlineto
            return
          </CharString>
          <CharString index="30">
            rmoveto
            318 308 -8 callgsubr
            -283 -308 rlineto
            return
          </CharString>
          <CharString index="31">
            rmoveto
            -615 -30 callgsubr
            615 hlineto
            endchar
          </CharString>
          <CharString index="32">
            rmoveto
            -6 -21 -3 -24 -25 vvcurveto
            -144 114 -102 101 callgsubr
            148 126 190 43 vhcurveto
            -163 hlineto
            -112 -26 -88 -69 -109 hhcurveto
            -95 56 callgsubr
            4 13 hvcurveto
            return
          </CharString>
          <CharString index="33">
            77 61 61 77 77 -61 61 -77 -78 -61 -61 -77 -77 61 -61 78 hvcurveto
            59 -137 107 callsubr
            -237 -1106 rlineto
            -93 -20 -42 -38 -86 hhcurveto
            -22 -16 2 3 -19 hvcurveto
            -43 -196 rlineto
            -5 32 49 -3 28 hhcurveto
            204 1 132 100 43 200 rrcurveto
            endchar
          </CharString>
          <CharString index="34">
            412 1030 -22 rmoveto
            332 235 267 367 284 -181 188 -283 -269 -203 -181 -258 -70 hvcurveto
            -166 106 callsubr
            -246 hlineto
            -226 -1063 33 callgsubr
            179 -179 276 hhcurveto
            95 callsubr
            -85 109 162 246 138 184 175 137 84 -109 -162 -246 -138 -184 -174 hvcurveto
            return
          </CharString>
          <CharString index="35">
            106 258 -12 rmoveto
            268 145 143 255 164 hvcurveto
            679 1057 rlineto
            -285 hlineto
            -506 -838 rlineto
            -17 hlineto
            -158 838 rlineto
            -270 hlineto
            245 -1110 rlineto
            -84 -68 -77 -35 -94 hhcurveto
            -49 -26 7 2 -7 hvcurveto
            -46 -221 rlineto
            -4 7 39 -10 56 hhcurveto
            return
          </CharString>
          <CharString index="36">
            rmoveto
            78 63 63 78 77 -63 64 -78 -78 -63 -64 -77 -78 63 -63 78 hvcurveto
            endchar
          </CharString>
          <CharString index="37">
            rmoveto
            82 hlineto
            49 34 -27 -38 -46 -39 -32 -57 -58 -40 34 47 4 hvcurveto
            0 -190 vlineto
            -2 -11 -1 -7 -11 vvcurveto
            -132 112 -85 175 172 121 91 128 74 -46 58 -72 17 vhcurveto
            1 4 rlineto
            92 13 71 70 88 vvcurveto
            114 -108 80 -154 -153 -113 -81 -133 -27 vhcurveto
            186 hlineto
            36 10 38 24 43 hhcurveto
            50 35 -25 -39 -46 -38 -28 -64 hvcurveto
            -84 hlineto
            return
          </CharString>
          <CharString index="38">
            307 -51 callgsubr
            return
          </CharString>
          <CharString index="39">
            hmoveto
            223 1048 rlineto
            7 hlineto
            190 -1041 rlineto
            182 hlineto
            637 1041 rlineto
            8 hlineto
            -225 -1048 rlineto
            235 -56 callsubr
            -321 hlineto
            -669 -1107 rlineto
            -6 hlineto
            -203 1107 119 callgsubr
            75 callsubr
            return
          </CharString>
          <CharString index="40">
            863 hlineto
            42 200 rlineto
            -539 hlineto
            1 5 678 689 36 168 rlineto
            -849 hlineto
            -42 -200 rlineto
            540 hlineto
            -1 -5 -697 -703 rlineto
            return
          </CharString>
          <CharString index="41" raw="1">
            15611df8 05fb83f7 93fc111f 88fb7615
            f770b11d fbb8fb70 fb21f734 f78ff7ee
            f766f7ae f7b81f0b  
          </CharString>
          <CharString index="42">
            rmoveto
            13 29 37 7 36 hhcurveto
            48 35 -28 -38 -48 -38 -43 -77 -26 hvcurveto
            56 -105 rlineto
            134 42 88 101 114 vvcurveto
            94 -81 68 -110 -50 -48 -9 -14 -31 vhcurveto
            endchar
          </CharString>
          <CharString index="43" raw="1">
            f7080af7 a6f7fcf7 affb4df7 51bb0af7
            4cfb51f7 af1fea0a 33f3f73b f791f71f
            f745f748 f71de322 fb3afb8f fb20fb47
            fb471ffb b5f84d15 68fb3d05 f94f06ad
            f73d050b   
          </CharString>
          <CharString index="44">
            rmoveto
            119 99 100 161 30 hvcurveto
            -144 hlineto
            -79 -18 -34 -43 -43 -79 -31 138 -137 hhcurveto
            -122 -96 -96 -162 -31 hvcurveto
            144 hlineto
            75 14 38 45 44 77 32 -139 138 hhcurveto
            endchar
          </CharString>
          <CharString index="45">
            79 367 129 107 237 -474 rlineto
            269 hlineto
            -309 613 510 449 rlineto
            -296 hlineto
            -478 -421 rlineto
            -6 hlineto
            172 802 rlineto
            -245 72 callgsubr
            return
          </CharString>
          <CharString index="46">
            -78 callsubr
            endchar
          </CharString>
          <CharString index="47">
            rmoveto
            5 18 3 24 25 vvcurveto
            144 -114 105 -174 -219 -147 -129 -187 -43 vhcurveto
            163 hlineto
            109 25 88 71 110 hhcurveto
            94 56 -53 -85 -16 -3 -16 -3 -10 hvcurveto
            endchar
          </CharString>
          <CharString index="48">
            67 67 -54 54 return
          </CharString>
          <CharString index="49">
            -158 569 539 rmoveto
            -97 -63 57 87 110 91 75 134 hvcurveto
            177 hlineto
            -71 -329 rlineto
            -114 -539 rmoveto
            70 callsubr
            -454 hlineto
            -290 -194 -156 -233 -123 65 -102 108 -47 hvcurveto
            -372 -401 rlineto
            297 hlineto
            322 355 rlineto
            0 0 0 0 vhcurveto
            122 hlineto
            return
          </CharString>
          <CharString index="50">
            rmoveto
            -332 -274 rlineto
            220 hlineto
            200 167 rlineto
            6 hlineto
            128 -167 rlineto
            195 hlineto
            -214 274 rlineto
            return
          </CharString>
          <CharString index="51">
            hlineto
            -69 callsubr
            return
          </CharString>
          <CharString index="52">
            250 1025 48 callgsubr
            -678 -509 rmoveto
            99 60 -54 -84 -120 -95 -100 -142 hvcurveto
            -170 hlineto
            77 358 rlineto
            -364 -553 rmoveto
            444 hlineto
            295 202 190 253 177 -134 125 -217 hvcurveto
            -186 hlineto
            67 317 -36 callsubr
            return
          </CharString>
          <CharString index="53">
            438 330 374 493 return
          </CharString>
          <CharString index="54">
            255 -56 callsubr
            -252 hlineto
            -915 -1025 rlineto
            -18 hlineto
            221 1025 rlineto
            -256 -97 callsubr
            253 hlineto
            914 1022 rlineto
            18 hlineto
            return
          </CharString>
          <CharString index="55">
            rmoveto
            3 8 104 367 1 6 rrcurveto
            305 hlineto
            -185 -868 123 callgsubr
            24 callgsubr
            -761 hlineto
            -1 -3 -149 -542 -5 -14 rrcurveto
            -202 -56 -66 -91 -88 hhcurveto
            -21 -20 2 5 -16 hvcurveto
            -45 -216 rlineto
            -7 20 36 -5 30 hhcurveto
            230 114 128 370 102 hvcurveto
            endchar
          </CharString>
          <CharString index="56">
            rmoveto
            12 33 33 5 36 hhcurveto
            48 31 -24 -37 -43 -48 -49 -65 -24 hvcurveto
            62 -97 rlineto
            120 40 88 105 108 vvcurveto
            93 -73 60 -114 -41 -51 -10 -13 -32 vhcurveto
            -48 -354 -66 callgsubr
            endchar
          </CharString>
          <CharString index="57">
            rmoveto
            123 -89 89 -121 -74 -61 -28 -54 -38 vhcurveto
            -3 hlineto
            105 13 60 76 71 hhcurveto
            43 32 -24 -37 7 hvcurveto
            196 hlineto
            128 1 -112 93 -156 hhcurveto
            -97 -104 -43 -95 -70 hvcurveto
            -55 -75 -35 -102 -121 vvcurveto
            -189 109 -112 184 167 132 117 149 vhcurveto
            -394 -26 rmoveto
            59 47 44 59 53 39 -37 -51 -58 -46 -45 -57 -55 -40 38 50 vhcurveto
            endchar
          </CharString>
          <CharString index="58">
            107 hmoveto
            246 hlineto
            181 861 rlineto
            228 105 callgsubr
            -232 hlineto
            18 89 rlineto
            90 18 54 43 100 hhcurveto
            37 40 -4 -6 20 hvcurveto
            37 180 rlineto
            9 -42 -53 8 -63 hhcurveto
            -226 -122 -90 -206 -40 hvcurveto
            -22 -113 rlineto
            -169 hlineto
            -40 -195 rlineto
            171 hlineto
            return
          </CharString>
          <CharString index="59">
            rmoveto
            150 -367 123 callsubr
            -229 521 455 541 rlineto
            -278 hlineto
            -290 -366 rlineto
            -5 hlineto
            -150 366 91 callsubr
            230 -521 -455 -541 rlineto
            277 hlineto
            290 367 rlineto
            return
          </CharString>
          <CharString index="60">
            -69 callsubr
            -955 hlineto
            -231 -866 rlineto
            -206 -55 -74 -146 -146 hhcurveto
            -22 -26 4 3 -13 hvcurveto
            -48 -231 rlineto
            -6 17 34 -6 41 hhcurveto
            306 127 213 359 97 hvcurveto
            180 659 rlineto
            461 79 callsubr
          </CharString>
          <CharString index="61" raw="1">
            154b66cc f1921ff7 2893d5f7 0ae01bcd
            af4d2784 1ffb2a84 40fb0d35 1bfb18b0
            15f805f7 9c71e8fc 04fb9c05 f72efbaf
            15f769f7 31f753f7 98e01dfb 68fb2ffb
            51fb98fb 48f6fb02 f7451f0e 
          </CharString>
          <CharString index="62">
            647 rmoveto
            12 hlineto
            -138 -647 rlineto
            254 hlineto
            139 645 rlineto
            12 hlineto
            417 -645 rlineto
            278 hlineto
            -456 714 756 729 rlineto
            -297 hlineto
            -666 -636 rlineto
            -12 hlineto
            136 636 97 callgsubr
            -136 -635 rlineto
            -12 hlineto
            -394 635 rlineto
            -274 hlineto
            425 -682 -807 -761 rlineto
            323 hlineto
            return
          </CharString>
          <CharString index="63">
            rmoveto
            119 100 93 154 27 hvcurveto
            -143 hlineto
            -73 -15 -34 -35 -44 -79 -35 123 -133 hhcurveto
            -123 -96 -88 -156 -28 hvcurveto
            144 hlineto
            69 11 37 37 44 78 36 -124 134 hhcurveto
            -263 -54 rmoveto
            -331 -268 rlineto
            220 hlineto
            198 162 rlineto
            7 hlineto
            129 -162 rlineto
            195 hlineto
            -216 268 rlineto
            endchar
          </CharString>
          <CharString index="64">
            1235 rmoveto
            -136 -632 rlineto
            -405 hlineto
            406 632 rlineto
            -129 -1235 rmoveto
            895 hlineto
            46 223 rlineto
            -650 hlineto
            87 397 rlineto
            613 hlineto
            44 211 rlineto
            -614 hlineto
            84 389 rlineto
            651 hlineto
            46 223 rlineto
            -1204 hlineto
            -923 -34 callsubr
            268 hlineto
            258 398 rlineto
            485 hlineto
            return
          </CharString>
          <CharString index="65">
            rmoveto
            206 155 127 163 45 hvcurveto
            -170 hlineto
            -89 -28 -85 -65 -103 hhcurveto
            -95 -56 55 79 6 0 7 1 7 hvcurveto
            -153 hlineto
            -3 -16 -1 -16 -15 vvcurveto
            -138 105 -105 182 vhcurveto
            endchar
          </CharString>
          <CharString index="66">
            rmoveto
            231 346 78 callsubr
            -194 -346 rlineto
            endchar
          </CharString>
          <CharString index="67">
            -114 855 1062 rmoveto
            7 -62 4 -51 -51 vvcurveto
            -423 -142 -284 -219 -114 -53 55 102 -1 vhcurveto
            42 5 41 22 102 vhcurveto
            112 529 rlineto
            -236 hlineto
            -123 -579 rlineto
            -12 -62 -9 -58 -54 vvcurveto
            -203 140 -128 237 392 240 350 555 67 -6 66 -9 46 vhcurveto
            return
          </CharString>
          <CharString index="68">
            -47 callgsubr
            208 530 -76 callsubr
          </CharString>
          <CharString index="69">
            rmoveto
            -659 hlineto
            260 1217 rlineto
            -261 -97 callsubr
            921 hlineto
            return
          </CharString>
          <CharString index="70">
            141 -13 callgsubr
            return
          </CharString>
          <CharString index="71">
            rlineto
            -30 callsubr
            return
          </CharString>
          <CharString index="72">
            rmoveto
            66 52 52 66 66 -52 52 -66 -67 -52 -52 -66 -66 52 -52 67 hvcurveto
            374 hmoveto
            67 52 52 66 66 -52 52 -67 -66 -52 -52 -66 -66 52 -52 66 hvcurveto
            endchar
          </CharString>
          <CharString index="73">
            -1443 rlineto
            return
          </CharString>
          <CharString index="74">
            rmoveto
            -180 107 -110 177 210 160 189 262 85 callgsubr
            -211 -156 -187 -262 vhcurveto
            286 -129 rmoveto
            -47 -28 41 71 160 74 145 80 49 28 -40 -72 -157 -76 -148 -80 hvcurveto
            endchar
          </CharString>
          <CharString index="75">
            -619 491 1062 rmoveto
            -244 hlineto
            -160 -747 rlineto
            -8 -40 -3 -34 -27 vvcurveto
            -144 113 -81 185 47 37 4 8 39 vhcurveto
            40 189 rlineto
            -3 -17 -19 -2 -36 hhcurveto
            -88 -45 32 69 21 4 27 6 28 hvcurveto
            return
          </CharString>
          <CharString index="76">
            hlineto
            47 223 rlineto
            return
          </CharString>
          <CharString index="77">
            -246 hlineto
            return
          </CharString>
          <CharString index="78">
            415 rmoveto
            149 -91 121 -150 50 vhcurveto
            1 6 rlineto
            197 39 133 146 179 vvcurveto
            208 -206 153 -280 -299 -228 -176 -230 -121 73 -103 121 -49 vhcurveto
            -1 -5 rlineto
            -235 -39 -164 -169 -205 vvcurveto
            -231 225 -164 319 337 248 187 254 vhcurveto
            -543 235 rmoveto
            166 116 -89 -127 -146 -134 -109 -177 -170 -116 89 128 145 134 109 181 hvcurveto
            -131 386 rmoveto
            130 116 100 150 141 98 -79 -112 -128 -118 -101 -152 -137 -98 79 111 vhcurveto
            endchar
          </CharString>
          <CharString index="79" raw="1">
            15f7c1f7 90f737f7 98f11ffb 9f06fb13
            41fb1745 fb3a1bfb 73fb1bf7 35f78a97
            1fa78da6 8e991efa ad069bc3 97dfd61a
            f7fefb67 f768fc01 fc47fbd8 fc10fc90
            fc0bf770 fb78f7fe 1efc7bf9 5115aef7
            6105fb02 063d66ae d2bca0c7 b6d01ffb
            62065845 70393b1a fb33f705 29f74f1e
            f7d2f75d 15f76fc7 f745f728 f75d1bf7
            65f714fb 10fb5f72 8a868a81 1f0e
          </CharString>
          <CharString index="80" raw="1">
            15e9f84d 05fb8ab5 1df78a06 f0f86e05
            9206f7bd fc6e05f7 ae06fc11 f8f6932e
            f8daf8b5 05fbba06 fc64fc4d 050b
          </CharString>
          <CharString index="81">
            87 callgsubr
            127 593 rlineto
            77 80 123 52 140 hhcurveto
            209 89 -120 -198 -43 hvcurveto
            -86 -404 rlineto
            260 hlineto
            90 420 rlineto
            307 64 -148 226 -349 hhcurveto
            -138 -128 -44 -63 -94 hvcurveto
            -17 hlineto
            128 597 rlineto
            endchar
          </CharString>
          <CharString index="82">
            43 883 637 rmoveto
            43 208 rlineto
            -147 hlineto
            -156 -101 84 125 3 hvcurveto
            121 4 118 85 159 hhcurveto
            165 105 -81 -128 -6 hvcurveto
            234 hlineto
            245 35 -202 171 -320 hhcurveto
            -311 -217 -164 -244 -7 hvcurveto
            -5 -142 81 -117 126 -36 -1 -5 rcurveline
            -223 -20 -153 -151 -5 -204 rrcurveto
            -243 -5 208 -165 319 hhcurveto
            326 209 159 277 43 hvcurveto
            -252 hlineto
            -141 -25 -114 -81 -177 hhcurveto
            -165 -113 91 127 3 hvcurveto
            144 3 125 85 207 hhcurveto
            return
          </CharString>
          <CharString index="83">
            510 rmoveto
            256 5 -181 182 -259 hhcurveto
            -155 -130 -68 -116 -88 hvcurveto
            -6 hlineto
            292 53 163 194 195 hhcurveto
            133 94 -76 -124 21 hvcurveto
            253 hlineto
            246 -12 -199 171 -272 hhcurveto
            -403 -283 -388 -482 -10 hvcurveto
            -477 -14 277 -144 253 hhcurveto
            322 235 225 309 8 hvcurveto
            -517 239 rmoveto
            156 112 -111 -156 -6 hvcurveto
            -170 -4 -123 -121 -174 hhcurveto
            -159 -117 117 154 4 hvcurveto
            160 4 138 127 169 hhcurveto
            endchar
          </CharString>
          <CharString index="84">
            174 -125 134 -165 -82 -78 -34 -49 -46 vhcurveto
            -17 hlineto
            152 35 160 109 179 hhcurveto
            11 12 0 -1 8 hvcurveto
            20 117 rlineto
            1 -20 -14 1 -20 hhcurveto
            -303 -226 -208 -314 -250 146 -154 200 186 139 137 185 hvcurveto
            return
          </CharString>
          <CharString index="85">
            332 1508 626 rmoveto
            179 -27 137 -46 120 vhcurveto
            -248 hlineto
            49 -126 31 -150 -151 vvcurveto
            -267 -97 -178 -144 -87 -47 57 102 28 3 24 9 41 vhcurveto
            66 317 118 callsubr
            -78 -365 rlineto
            -127 -27 -72 -77 -101 hhcurveto
            -86 -54 80 115 244 110 240 201 193 hvcurveto
            -251 hlineto
            -187 -167 -113 -268 -255 vvcurveto
            -249 119 -145 217 146 102 86 150 70 vhcurveto
            4 hlineto
            -165 21 107 -71 151 hhcurveto
            275 211 281 367 hvcurveto
            return
          </CharString>
          <CharString index="86">
            639 rmoveto
            172 hlineto
            161 93 -78 -134 -140 -118 -97 -171 -179 -116 97 145 1 hvcurveto
            0 -242 vlineto
            -2 -11 0 -9 -9 vvcurveto
            -255 -6 211 -172 322 hhcurveto
            321 235 189 259 156 -90 112 -155 38 hvcurveto
            1 5 rlineto
            193 26 139 149 182 vvcurveto
            219 -195 156 -274 -284 -208 -157 -244 -38 vhcurveto
            240 hlineto
            113 22 108 76 138 hhcurveto
            144 96 -78 -117 -132 -119 -86 -180 hvcurveto
            -179 hlineto
            endchar
          </CharString>
          <CharString index="87">
            -101 929 hmoveto
            21 callsubr
            return
          </CharString>
          <CharString index="88">
            rmoveto
            -38 -172 rlineto
            -7 -35 -6 -38 -37 vvcurveto
            -179 135 -84 179 vhcurveto
            79 hlineto
            39 187 rlineto
            -44 hlineto
            -107 -36 48 78 27 5 30 6 32 hvcurveto
            43 197 rlineto
            6 31 5 29 26 vvcurveto
            94 -50 64 -145 24 vhcurveto
            4 17 159 15 99 69 33 154 rlinecurve
            49 228 rlineto
            153 34 58 59 132 hhcurveto
            43 hlineto
            40 191 rlineto
            -80 hlineto
            -255 -142 -93 -258 -55 hvcurveto
            -43 -194 rlineto
            -158 -34 -72 -51 -153 hhcurveto
            -51 -246 rlineto
            126 55 -31 -90 -25 -4 -29 -7 -33 hvcurveto
            endchar
          </CharString>
          <CharString index="89">
            1062 rmoveto
            -244 hlineto
            -139 -655 rlineto
            -131 -28 -103 -90 -107 hhcurveto
            -102 -60 70 90 27 4 29 7 33 hvcurveto
            133 627 rlineto
            -239 hlineto
            -138 -654 rlineto
            -138 -30 -102 -84 -107 hhcurveto
            -101 -60 70 90 27 3 29 7 33 hvcurveto
            133 627 rlineto
            -245 hlineto
            -140 -666 rlineto
            -10 -44 -4 -42 -39 vvcurveto
            -171 126 -122 172 165 118 88 102 70 vhcurveto
            5 hlineto
            -103 27 103 -87 144 hhcurveto
            136 120 84 108 57 hvcurveto
            5 hlineto
            -36 -170 rlineto
            235 hlineto
            endchar
          </CharString>
          <CharString index="90">
            696 rmoveto
            -158 -118 117 157 1 hvcurveto
            165 2 132 129 168 hhcurveto
            158 118 -117 -155 -1 hvcurveto
            -164 -1 -135 -132 -166 hhcurveto
            -528 244 rmoveto
            -245 176 -181 236 86 66 23 45 52 vhcurveto
            9 -3 -17 -24 -26 -32 -23 -25 rlinecurve
            -40 -47 -442 -415 -48 -36 rrcurveto
            338 hlineto
            31 29 333 327 22 26 rrcurveto
            224 229 104 199 198 vvcurveto
            276 -210 195 -299 -325 -247 -232 -307 vhcurveto
            endchar
          </CharString>
          <CharString index="91">
            rmoveto
            188 hlineto
            36 172 rlineto
            -188 hlineto
            41 192 rlineto
            -178 hlineto
            -41 -192 rlineto
            -184 hlineto
            -37 -172 rlineto
            185 104 callsubr
            178 hlineto
            endchar
          </CharString>
          <CharString index="92">
            rmoveto
            40 194 rlineto
            -705 75 callgsubr
            246 hlineto
            186 868 rlineto
            return
          </CharString>
          <CharString index="93">
            -208 611 895 rmoveto
            95 63 -51 -66 -66 -56 -43 -120 -25 hvcurveto
            -176 -36 rlineto
            -232 -49 -115 -106 -166 vvcurveto
            -187 152 -122 247 255 171 124 221 66 vhcurveto
            -30 callsubr
            -94 -37 -87 -58 -120 hhcurveto
            -96 -65 50 67 71 53 40 133 31 hvcurveto
            188 41 rlineto
            213 47 114 110 161 vvcurveto
            175 -155 120 -236 -254 -171 -125 -212 -46 vhcurveto
            244 hlineto
            91 27 79 57 112 hhcurveto
            endchar
          </CharString>
          <CharString index="94">
            hlineto
            84 383 rlineto
            return
          </CharString>
          <CharString index="95">
            72 790 -350 rmoveto
            245 hlineto
            211 984 rlineto
            8 41 7 49 36 vvcurveto
            196 -145 122 -189 -154 -134 -69 -130 -74 vhcurveto
            -6 hlineto
            -2 -3 25 0 vhcurveto
            115 -12 -65 53 -141 hhcurveto
            -45 -44 -5 -10 -31 hvcurveto
            -40 -188 rlineto
            4 16 18 3 20 hhcurveto
            58 23 -23 -48 -14 -2 -19 -5 -24 hvcurveto
            -159 -746 rlineto
            245 hlineto
            130 620 rlineto
            157 35 110 93 140 hhcurveto
            115 83 -69 -114 -24 -3 -30 -7 -28 hvcurveto
            return
          </CharString>
          <CharString index="96">
            rmoveto
            189 hlineto
            297 307 97 callsubr
            -610 -307 rmoveto
            189 hlineto
            297 307 97 callsubr
            endchar
          </CharString>
          <CharString index="97">
            rmoveto
            -135 293 rlineto
            -206 hlineto
            169 -293 rlineto
            return
          </CharString>
          <CharString index="98">
            rmoveto
            -27 78 -14 88 84 vvcurveto
            224 102 226 138 131 vhcurveto
            -207 hlineto
            -153 -146 -87 -207 -214 vvcurveto
            -99 21 -96 38 -69 vhcurveto
            endchar
          </CharString>
          <CharString index="99">
            571 hlineto
            45 216 rlineto
            -304 hlineto
            1 8 rlineto
            243 136 152 261 274 vvcurveto
            341 -237 232 -374 -458 -329 -308 -474 -195 83 -162 145 -106 vhcurveto
            -7 -299 vlineto
            -44 -216 rlineto
            561 hlineto
            54 262 rlineto
            -156 96 -84 141 186 vvcurveto
            333 199 224 299 234 149 -152 -226 -262 -142 -209 -255 -131 vhcurveto
            endchar
          </CharString>
          <CharString index="100">
            -36 callsubr
            -133 return
          </CharString>
          <CharString index="101">
            rmoveto
            77 60 62 76 77 -60 61 -77 -78 -60 -61 -77 -76 60 -62 78 hvcurveto
            399 542 -76 callsubr
          </CharString>
          <CharString index="102">
            1537 -67 callgsubr
          </CharString>
          <CharString index="103">
            -122 1045 351 rmoveto
            -232 hlineto
            -101 -37 -90 -66 -113 hhcurveto
            -141 -84 100 159 6 0 6 1 6 hvcurveto
            408 hlineto
            36 174 rlineto
            -419 hlineto
            145 39 107 100 137 hhcurveto
            126 77 -73 -96 13 hvcurveto
            232 hlineto
            213 -11 -151 160 -279 hhcurveto
            -330 -229 -275 -361 -281 157 -189 301 241 187 150 223 54 hvcurveto
            return
          </CharString>
          <CharString index="104" raw="1">
            a0f9a5f7 5715fc5b 068e9cc3 c9b9eaaf
            f7121989 86f703f8 14898508 f7f406fd
            ce1cfb87 15c7f7a9 05f98e06 50fba905
            f77406ef f86c05fb 3606f74c f9f705fd
            b9068c91 fb34fcca 8d915ffb 3445fb04
            43620837 0627fc6c 050e 
          </CharString>
          <CharString index="105">
            rmoveto
            -5 -21 -4 -24 -25 vvcurveto
            -143 115 -103 173 219 148 126 190 43 vhcurveto
            51 callgsubr
            -88 -69 -110 hhcurveto
            -94 -56 51 23 callsubr
            endchar
          </CharString>
          <CharString index="106">
            rmoveto
            54 callsubr
            -177 hmoveto
            54 callsubr
            endchar
          </CharString>
          <CharString index="107" raw="1">
            fbf115f7 8806f0f8 74831dfb 54fa3715
            f73bfeba 05f78406 f8f9faba 05fb9f06
            fc2dfda9 05860630 f9a9050b 
          </CharString>
          <CharString index="108">
            1021 rmoveto
            243 hlineto
            145 27 105 88 145 hhcurveto
            132 92 -80 -114 -110 -63 -77 -256 -208 hvcurveto
            -580 -470 -40 -195 rlineto
            1020 hlineto
            45 217 rlineto
            -663 hlineto
            1 6 378 306 rlineto
            331 267 83 109 180 vvcurveto
            221 -196 161 -268 -291 -220 -183 -263 -25 vhcurveto
            endchar
          </CharString>
          <CharString index="109">
            -93 callgsubr
            endchar
          </CharString>
          <CharString index="110">
            1129 rmoveto
            199 hlineto
            221 314 rlineto
            -276 hlineto
            return
          </CharString>
          <CharString index="111">
            64 callgsubr
            650 -31 callsubr
            -911 -97 callsubr
            return
          </CharString>
          <CharString index="112" raw="1">
            f77bcaf9 0115f936 06b9f773 05fd3506
            f795f8eb a51d  
          </CharString>
          <CharString index="113">
            rmoveto
            68 55 54 67 67 -55 54 -68 -81 callgsubr
            387 hmoveto
            68 54 54 23 callgsubr
            -54 68 hvcurveto
            endchar
          </CharString>
          <CharString index="114">
            hmoveto
            248 hlineto
            58 269 rlineto
            194 hlineto
            45 218 rlineto
            -194 hlineto
            204 956 rlineto
            -384 hlineto
            -334 -379 -276 -317 -178 -238 -42 -240 rcurveline
            717 hlineto
            -433 217 rmoveto
            201 258 257 294 181 202 rrcurveto
            6 hlineto
            -164 -759 rlineto
            -482 hlineto
            endchar
          </CharString>
          <CharString index="115">
            rmoveto
            201 hlineto
            257 239 rlineto
            return
          </CharString>
          <CharString index="116">
            182 1185 hmoveto
            -48 callgsubr
            return
          </CharString>
          <CharString index="117">
            rmoveto
            27 -77 14 -89 -83 vvcurveto
            -225 -102 -225 -138 -131 vhcurveto
            206 hlineto
            154 145 87 208 213 vvcurveto
            100 -22 96 -37 68 vhcurveto
            endchar
          </CharString>
          <CharString index="118">
            rmoveto
            194 hlineto
            313 257 rlineto
            -216 hlineto
            -177 -147 rlineto
            -11 hlineto
            -116 147 rlineto
            -191 hlineto
            70 -321 rmoveto
            -68 -53 -54 -68 -67 53 -54 68 69 53 54 67 68 -53 54 -69 69 callgsubr
          </CharString>
          <CharString index="119">
            hmoveto
            245 hlineto
            134 632 rlineto
            return
          </CharString>
          <CharString index="120">
            rmoveto
            187 150 152 189 189 -150 152 -187 -188 -150 -152 -189 -189 150 -152 188 hvcurveto
            endchar
          </CharString>
          <CharString index="121">
            rmoveto
            74 57 58 72 71 -57 58 -74 -74 -58 -58 -71 -72 58 -58 74 hvcurveto
            413 495 rmoveto
            -670 hlineto
            -30 -138 rlineto
            670 hlineto
            endchar
          </CharString>
          <CharString index="122">
            -687 321 hmoveto
            -90 callsubr
            300 1597 -105 callgsubr
          </CharString>
          <CharString index="123">
            207 1813 -57 callsubr
            return
          </CharString>
          <CharString index="124">
            224 hlineto
            387 539 33 158 rlineto
            -538 hlineto
            -33 -158 rlineto
            320 -4 hlineto
            endchar
          </CharString>
          <CharString index="125">
            rmoveto
            22 callgsubr
            return
          </CharString>
          <CharString index="126" raw="1">
            a00a0e   
          </CharString>
          <CharString index="127" raw="1">
            7c0a0e   
          </CharString>
          <CharString index="128">
            34 callgsubr
            -246 hlineto
            -89 -410 rlineto
            -57 -58 -88 -35 -85 71 callgsubr
            30 hvcurveto
            61 287 -36 callsubr
            -60 -286 rlineto
            -258 -54 71 callsubr
            107 93 33 65 75 hvcurveto
            13 hlineto
            -94 -448 rlineto
            return
          </CharString>
          <CharString index="129">
            -59 callsubr
            -69 -60 callgsubr
            return
          </CharString>
          <CharString index="130">
            85 13 callgsubr
            return
          </CharString>
          <CharString index="131">
            rmoveto
            41 197 rlineto
            -1058 hlineto
            -40 -197 rlineto
            625 329 rmoveto
            88 64 61 88 88 -64 60 -88 -88 -63 -60 -88 -88 63 -61 88 hvcurveto
            -160 -759 rmoveto
            89 63 61 88 88 -63 60 -89 -88 -63 -60 -88 -88 63 -61 88 hvcurveto
            endchar
          </CharString>
          <CharString index="132">
            367 -48 callsubr
            endchar
          </CharString>
          <CharString index="133">
            rmoveto
            40 197 rlineto
            -964 hlineto
            -40 -197 rlineto
            710 568 rmoveto
            375 hlineto
            40 192 rlineto
            -375 hlineto
            56 255 rlineto
            -215 hlineto
            -56 -255 rlineto
            -375 104 callsubr
            375 hlineto
            -55 -255 rlineto
            215 hlineto
            endchar
          </CharString>
          <CharString index="134">
            657 698 702 745 118 callsubr
            -640 -678 -721 -765 rlineto
            return
          </CharString>
          <CharString index="135" raw="1">
            fb76f7ae aa0a  
          </CharString>
          <CharString index="136">
            hmoveto
            248 hlineto
            58 269 rlineto
            183 hlineto
            46 221 rlineto
            -187 hlineto
            82 379 82 callgsubr
            -81 -376 rlineto
            -401 hlineto
            3 10 652 940 rlineto
            -272 hlineto
            -667 -950 -46 -224 rlineto
            683 hlineto
            endchar
          </CharString>
          <CharString index="137">
            -285 rmoveto
            235 hlineto
            91 callgsubr
            -437 hlineto
            -49 -223 rlineto
            205 hlineto
            return
          </CharString>
          <CharString index="138" raw="1">
            280a0e   
          </CharString>
          <CharString index="139">
            -330 935 868 -15 callsubr
            return
          </CharString>
          <CharString index="140">
            239 rlineto
            -205 hlineto
            156 -239 rlineto
            return
          </CharString>
          <CharString index="141">
            rmoveto
            202 hlineto
            332 274 rlineto
            -220 hlineto
            -200 -167 rlineto
            -7 hlineto
            -127 167 rlineto
            -195 hlineto
            386 34 rmoveto
            71 54 55 69 68 -54 55 -71 -71 -53 -55 -68 -69 53 -55 71 hvcurveto
            endchar
          </CharString>
          <CharString index="142">
            -91 callsubr
            endchar
          </CharString>
          <CharString index="143">
            -225 -1062 rlineto
            return
          </CharString>
          <CharString index="144">
            rmoveto
            80 63 66 81 82 -63 65 -80 -81 -63 -65 -82 -81 63 -66 81 hvcurveto
            return
          </CharString>
          <CharString index="145">
            -288 rmoveto
            -2 -9 -19 -1 -16 hhcurveto
            -82 -45 33 62 70 51 71 138 69 hvcurveto
            -149 28 rlineto
            -145 -66 -94 -110 -113 vvcurveto
            -122 94 -78 152 38 35 5 6 20 vhcurveto
            endchar
          </CharString>
          <CharString index="146">
            rmoveto
            53 -153 35 -211 1 -263 2 -451 -178 -393 -285 -282 rrcurveto
            265 hlineto
            271 266 177 398 427 vvcurveto
            238 -46 276 -72 148 vhcurveto
            endchar
          </CharString>
          <CharString index="147" raw="1">
            15fb7506 fd33fef0 05f77506 f930f788
            15b8f76f 05fe9106 5efb6f05 faeff851
            15b8f76f 05fe9206 5ffb6f05 0e
          </CharString>
          <CharString index="148">
            69 55 55 67 68 -55 55 -69 -69 -55 -55 -68 -67 55 -55 69 hvcurveto
            return
          </CharString>
          <CharString index="149">
            -654 390 713 37 callsubr
            -227 -1020 rmoveto
            250 547 82 callgsubr
            -199 -547 rlineto
            endchar
          </CharString>
          <CharString index="150">
            rmoveto
            46 204 rlineto
            -1032 hlineto
            -46 -204 rlineto
            123 538 rmoveto
            -48 -211 1101 299 45 197 -961 304 -49 -216 653 -174 -6 -22 rlineto
            endchar
          </CharString>
          <CharString index="151">
            -285 rmoveto
            236 hlineto
            219 449 12 59 rlineto
            -452 hlineto
            -46 -223 rlineto
            171 hlineto
            return
          </CharString>
          <CharString index="152">
            rmoveto
            -106 -498 rlineto
            168 hlineto
            156 498 rlineto
            return
          </CharString>
          <CharString index="153">
            -735 44 hmoveto
            246 -56 callsubr
            -246 hlineto
            -251 -1893 -102 callgsubr
            return
          </CharString>
          <CharString index="154">
            hvcurveto
            120 vmoveto
            -209 -161 162 212 211 161 162 209 210 161 -162 -211 -212 -161 -162 -210 hvcurveto
            endchar
          </CharString>
          <CharString index="155" raw="1">
            fbaefbde fb88fba5 fbfcfbb0 0b
          </CharString>
          <CharString index="156">
            rmoveto
            -67 callsubr
            return
          </CharString>
          <CharString index="157">
            hmoveto
            -69 callsubr
            -1200 122 callsubr
            260 1219 rlineto
            682 81 callgsubr
            endchar
          </CharString>
          <CharString index="158">
            36 59 8 102 callgsubr
            72 18 104 callgsubr
            47 -35 -59 -8 -1 -8 -2 -8 hvcurveto
            184 hlineto
            return
          </CharString>
          <CharString index="159">
            rlineto
            236 hlineto
            return
          </CharString>
          <CharString index="160">
            rmoveto
            144 673 118 callsubr
            -144 -673 rlineto
            -2 -1080 rmoveto
            143 674 118 callsubr
            -142 -674 rlineto
            endchar
          </CharString>
          <CharString index="161">
            328 300 rlineto
            -248 hlineto
            -287 -300 rlineto
            return
          </CharString>
          <CharString index="162">
            hlineto
            185 867 -36 callsubr
            return
          </CharString>
          <CharString index="163">
            rmoveto
            374 1753 rlineto
            -509 hlineto
            -40 -191 rlineto
            270 hlineto
            -294 -1370 rlineto
            -270 104 callsubr
            endchar
          </CharString>
          <CharString index="164">
            rmoveto
            650 hlineto
            46 220 rlineto
            -650 hlineto
            endchar
          </CharString>
          <CharString index="165">
            rmoveto
            46 222 rlineto
            -1021 hlineto
            -46 -222 rlineto
            1114 442 rmoveto
            46 222 rlineto
            -1022 hlineto
            -46 -222 rlineto
            endchar
          </CharString>
          <CharString index="166">
            hmoveto
            257 -56 callsubr
            -257 hlineto
            -433 -264 -55 -264 427 261 rlineto
            5 hlineto
            endchar
          </CharString>
          <CharString index="167">
            rmoveto
            588 -333 -2 -13 -734 -340 -55 -265 1035 499 42 201 -823 502 rlineto
            endchar
          </CharString>
          <CharString index="168">
            80 64 65 82 81 -64 65 -80 return
          </CharString>
          <CharString index="169">
            -261 hlineto
            -184 -878 -9 return
          </CharString>
          <CharString index="170" raw="1">
            06f0f86e 05fbfc06 60fb6005 f715060b
          </CharString>
          <CharString index="171">
            -100 325 hmoveto
            4 callsubr
            return
          </CharString>
          <CharString index="172">
            hmoveto
            285 hlineto
            878 1223 46 220 rlineto
            -984 hlineto
            -45 -217 rlineto
            709 -6 hlineto
            endchar
          </CharString>
          <CharString index="173">
            1220 rlineto
            return
          </CharString>
          <CharString index="174">
            68 callsubr
            100 474 rlineto
            return
          </CharString>
          <CharString index="175">
            -270 rmoveto
            231 hlineto
            return
          </CharString>
          <CharString index="176">
            -1512 -101 callgsubr
          </CharString>
          <CharString index="177">
            246 hlineto
            24 callgsubr
            return
          </CharString>
          <CharString index="178">
            118 -168 233 hhcurveto
            return
          </CharString>
          <CharString index="179">
            -677 326 84 callgsubr
          </CharString>
          <CharString index="180">
            235 -11 18 callsubr
            return
          </CharString>
          <CharString index="181" raw="1">
            a415fb74 e31df774 060b 
          </CharString>
          <CharString index="182">
            -306 -34 callsubr
            return
          </CharString>
          <CharString index="183">
            33 hmoveto
            245 hlineto
            return
          </CharString>
          <CharString index="184" raw="1">
            fbea1589 92ba889f 1bf781f7 14ecf76c
            bb1f93ad 0b  
          </CharString>
          <CharString index="185">
            rlineto
            -226 hlineto
            return
          </CharString>
          <CharString index="186">
            hlineto
            -260 -1220 rlineto
            endchar
          </CharString>
          <CharString index="187">
            35 -7 -30 rlineto
            -115 -25 return
          </CharString>
          <CharString index="188">
            41 195 rlineto
            return
          </CharString>
          <CharString index="189" raw="1">
            05fb9c06 0b  
          </CharString>
          <CharString index="190">
            rmoveto
            374 1753 118 callsubr
            -373 -1753 rlineto
            endchar
          </CharString>
          <CharString index="191">
            rmoveto
            850 1753 97 callsubr
            -851 -1753 rlineto
            endchar
          </CharString>
          <CharString index="192">
            70 55 57 70 70 -55 57 -70 -70 -55 -57 -70 -70 55 -57 70 hvcurveto
            return
          </CharString>
          <CharString index="193">
            hlineto
            44 214 rmoveto
            1848 hlineto
            49 229 rlineto
            -1847 hlineto
            return
          </CharString>
          <CharString index="194">
            95 callgsubr
            -260 hlineto
            return
          </CharString>
          <CharString index="195">
            hlineto
            -42 -201 rlineto
            return
          </CharString>
          <CharString index="196">
            hlineto
            172 740 rlineto
            -216 hlineto
            -323 -507 rlineto
            -7 hlineto
            return
          </CharString>
          <CharString index="197">
            hlineto
            -287 -300 rlineto
            endchar
          </CharString>
          <CharString index="198">
            rlineto
            -260 hlineto
            return
          </CharString>
          <CharString index="199" raw="1">
            27c7f8f1 15f9ec06 b2f75805 fdeb060b
          </CharString>
          <CharString index="200">
            rmoveto
            2048 hlineto
            46 220 rlineto
            -2048 hlineto
            endchar
          </CharString>
          <CharString index="201" raw="1">
            fc021587 99b6889f 1b0b 
          </CharString>
          <CharString index="202">
            6 107 callgsubr
            return
          </CharString>
          <CharString index="203">
            19 2 18 17 vvcurveto
            return
          </CharString>
          <CharString index="204">
            rlineto
            -229 hlineto
            return
          </CharString>
          <CharString index="205">
            rmoveto
            70 callgsubr
            return
          </CharString>
          <CharString index="206">
            rmoveto
            46 227 rlineto
            -1057 hlineto
            -47 -227 rlineto
            endchar
          </CharString>
          <CharString index="207">
            rmoveto
            221 hlineto
            -53 1753 rlineto
            -221 hlineto
            endchar
          </CharString>
          <CharString index="208">
            rlineto
            443 hlineto
            return
          </CharString>
          <CharString index="209">
            -8 -2 114 callgsubr
            return
          </CharString>
          <CharString index="210">
            247 hlineto
            24 callgsubr
            return
          </CharString>
          <CharString index="211">
            hlineto
            -40 -192 rlineto
            return
          </CharString>
          <CharString index="212">
            -300 rlineto
            -177 return
          </CharString>
          <CharString index="213">
            hlineto
            89 418 rlineto
            return
          </CharString>
          <CharString index="214">
            rmoveto
            -245 hlineto
            return
          </CharString>
          <CharString index="215">
            rlineto
            261 hlineto
            return
          </CharString>
          <CharString index="216">
            234 326 224 -134 149 -221 return
          </CharString>
          <CharString index="217" raw="1">
            f70c1d59 5e0b  
          </CharString>
          <CharString index="218">
            rmoveto
            645 368 -491 367 rlineto
            endchar
          </CharString>
          <CharString index="219">
            42 callgsubr
            endchar
          </CharString>
          <CharString index="220">
            rmoveto
            280 219 216 278 278 return
          </CharString>
          <CharString index="221">
            -867 rlineto
            -331 hlineto
            185 867 rlineto
            return
          </CharString>
          <CharString index="222" raw="1">
            f7091dbe 1f0b  
          </CharString>
          <CharString index="223" raw="1">
            15f7def7 880b  
          </CharString>
          <CharString index="224">
            hlineto
            40 195 rlineto
            return
          </CharString>
          <CharString index="225">
            rlineto
            -227 hlineto
            return
          </CharString>
          <CharString index="226">
            rlineto
            246 hlineto
            return
          </CharString>
          <CharString index="227">
            982 rmoveto
            262 -402 rlineto
            -10 vlineto
            return
          </CharString>
          <CharString index="228">
            -270 rmoveto
            226 hlineto
            196 414 return
          </CharString>
          <CharString index="229">
            -97 callsubr
            260 hlineto
            return
          </CharString>
          <CharString index="230">
            rlineto
            259 hlineto
            return
          </CharString>
        <CharString name=".notdef">
          841 -75 -494 rmoveto
          1847 hlineto
          51 229 rlineto
          -1848 86 callsubr
          45 214 rmoveto
          1847 hlineto
          49 229 rlineto
          -1847 hlineto
          44 214 rmoveto
          1848 hlineto
          49 229 rlineto
          -1847 86 callsubr
          44 214 rmoveto
          1847 hlineto
          50 229 rlineto
          -1848 hlineto
          endchar
        </CharString>
        <CharString name=".null">
          endchar
        </CharString>
        <CharString name="A">
          149 867 -103 callsubr
          endchar
        </CharString>
        <CharString name="AE">
          731 1139 -43 callsubr
          endchar
        </CharString>
        <CharString name="AEacute">
          731 1139 -43 callsubr
          555 1160 -82 callgsubr
        </CharString>
        <CharString name="AEmacron">
          731 1139 -43 callsubr
          826 1365 -79 callsubr
        </CharString>
        <CharString name="Aacute">
          149 867 -103 callsubr
          83 1189 -82 callgsubr
        </CharString>
        <CharString name="Abreve">
          149 867 -103 callsubr
          -306 1487 -75 callsubr
          endchar
        </CharString>
        <CharString name="Abreveacute">
          149 867 -103 callsubr
          -82 1494 8 callsubr
          -229 hlineto
          -173 -561 -42 callsubr
        </CharString>
        <CharString name="Abrevedotbelow">
          149 867 -103 callsubr
          -306 1487 -75 callsubr
          -276 -2306 -101 callgsubr
        </CharString>
        <CharString name="Abrevegrave">
          149 867 -103 callsubr
          138 1494 19 callgsubr
        </CharString>
        <CharString name="Abrevehookabove">
          149 867 -103 callsubr
          -140 1662 rmoveto
          7 25 30 4 34 hhcurveto
          59 34 -24 -39 -43 -43 -35 -62 -14 hvcurveto
          72 -90 rlineto
          113 32 75 81 94 vvcurveto
          95 -82 63 -123 -32 -44 -5 -9 -27 vhcurveto
          85 -607 -42 callsubr
        </CharString>
        <CharString name="Abrevetilde">
          149 867 -103 callsubr
          188 1492 -6 callgsubr
        </CharString>
        <CharString name="Acaron">
          149 867 -103 callsubr
          -119 1183 -86 callgsubr
        </CharString>
        <CharString name="Acircumflex">
          149 867 -103 callsubr
          127 1494 -94 callsubr
        </CharString>
        <CharString name="Acircumflexacute">
          1 callgsubr
          43 50 8 callsubr
          -228 hlineto
          endchar
        </CharString>
        <CharString name="Acircumflexdotbelow">
          149 867 -103 callsubr
          127 1494 -95 callsubr
          -758 -2002 -101 callgsubr
        </CharString>
        <CharString name="Acircumflexgrave">
          1 callgsubr
          266 50 rmoveto
          -128 239 rlineto
          -206 hlineto
          157 -239 rlineto
          endchar
        </CharString>
        <CharString name="Acircumflexhookabove">
          1 callgsubr
          23 162 rmoveto
          9 29 29 4 31 hhcurveto
          55 35 -25 -38 -45 -42 -36 -58 -16 hvcurveto
          67 -93 rlineto
          115 39 75 81 101 vvcurveto
          93 -77 60 -121 -38 -47 -7 -11 -25 vhcurveto
          endchar
        </CharString>
        <CharString name="Acircumflextilde">
          149 867 -103 callsubr
          182 1492 -44 callsubr
        </CharString>
        <CharString name="Acyrillic">
          159 872 -103 callsubr
          endchar
        </CharString>
        <CharString name="Adblgrave">
          149 867 -103 callsubr
          -297 1189 -40 callgsubr
          569 -300 rmoveto
          189 hlineto
          -161 300 rlineto
          -230 hlineto
          endchar
        </CharString>
        <CharString name="Adieresis">
          149 867 -103 callsubr
          -188 1228 -105 callgsubr
        </CharString>
        <CharString name="Adieresismacron">
          149 867 -103 callsubr
          -193 1422 rmoveto
          -41 callgsubr
          609 267 rmoveto
          58 callgsubr
          670 hlineto
          -197 -129 rmoveto
          36 callgsubr
        </CharString>
        <CharString name="Adotaccent">
          149 867 -103 callsubr
          13 1239 -101 callgsubr
        </CharString>
        <CharString name="Adotbelow">
          149 867 -103 callsubr
          -423 -819 -101 callgsubr
        </CharString>
        <CharString name="Adotmacron">
          149 867 -103 callsubr
          3 1194 14 callsubr
        </CharString>
        <CharString name="Agrave">
          149 867 -103 callsubr
          -129 1189 -40 callgsubr
          endchar
        </CharString>
        <CharString name="Ahookabove">
          149 867 -103 callsubr
          -172 1409 -64 callgsubr
        </CharString>
        <CharString name="Ainvertedbreve">
          149 867 -103 callsubr
          315 1171 -60 callsubr
        </CharString>
        <CharString name="Alphagreek">
          149 867 -103 callsubr
          endchar
        </CharString>
        <CharString name="Alphatonosgreek">
          149 867 -103 callsubr
          -763 760 rmoveto
          199 hlineto
          221 314 rlineto
          -276 hlineto
          endchar
        </CharString>
        <CharString name="Amacron">
          149 867 -103 callsubr
          354 1394 -79 callsubr
        </CharString>
        <CharString name="Aogonek">
          149 1149 -283 rmoveto
          -8 -17 -27 -4 -29 hhcurveto
          -64 -35 27 46 71 88 82 175 76 hvcurveto
          23 10 -199 1426 119 callgsubr
          -820 -34 callsubr
          277 hlineto
          202 369 rlineto
          534 hlineto
          46 -367 rlineto
          -145 -80 -89 -103 -100 vvcurveto
          -103 86 -66 125 55 52 9 13 25 vhcurveto
          -255 1605 rmoveto
          6 hlineto
          75 -604 rlineto
          -410 hlineto
          endchar
        </CharString>
        <CharString name="Aring">
          149 867 -103 callsubr
          18 1193 -90 callgsubr
        </CharString>
        <CharString name="Aringacute">
          149 867 -103 callsubr
          1 1142 11 callgsubr
        </CharString>
        <CharString name="Aringbelow">
          149 867 -103 callsubr
          -423 -885 -90 callgsubr
        </CharString>
        <CharString name="Atilde">
          149 867 -103 callsubr
          129 1177 -103 callgsubr
          endchar
        </CharString>
        <CharString name="B">
          121 721 -83 callsubr
          endchar
        </CharString>
        <CharString name="Bdotaccent">
          121 721 -83 callsubr
          193 1403 -101 callgsubr
        </CharString>
        <CharString name="Bdotbelow">
          121 721 -83 callsubr
          -186 -655 -101 callgsubr
        </CharString>
        <CharString name="Becyrillic">
          77 654 hmoveto
          355 234 230 275 240 -190 146 -291 hvcurveto
          -247 hlineto
          72 329 rlineto
          663 -31 callsubr
          -925 -97 callsubr
          305 214 rmoveto
          102 468 123 callgsubr
          161 105 -67 -139 -147 -145 -115 -193 hvcurveto
          endchar
        </CharString>
        <CharString name="Betagreek">
          121 721 -83 callsubr
          endchar
        </CharString>
        <CharString name="Blinebelow">
          121 721 -83 callsubr
          167 -444 -79 callsubr
        </CharString>
        <CharString name="C">
          239 1248 937 -94 callgsubr
          endchar
        </CharString>
        <CharString name="Cacute">
          239 1248 937 -94 callgsubr
          -184 622 -82 callgsubr
        </CharString>
        <CharString name="Ccaron">
          239 1248 937 -94 callgsubr
          -386 616 -86 callgsubr
        </CharString>
        <CharString name="Ccedilla">
          239 1503 937 rmoveto
          1 11 0 11 18 vvcurveto
          295 -13 -233 195 -324 hhcurveto
          -457 -316 -364 -507 -342 194 -231 311 -40 hvcurveto
          -71 -116 -21 -91 rlineto
          59 hlineto
          100 41 -17 -39 -39 -43 -22 -78 -46 -46 7 13 -38 hvcurveto
          -27 -130 rlineto
          -14 38 67 -10 60 hhcurveto
          161 111 86 125 91 -63 53 -110 2 hvcurveto
          60 96 296 19 232 189 65 280 rlinecurve
          -254 hlineto
          -163 -60 -143 -99 -176 hhcurveto
          -219 -135 154 251 366 201 265 292 179 135 -106 -167 14 hvcurveto
          -16 1 -8 -6 vvcurveto
          endchar
        </CharString>
        <CharString name="Ccedillaacute">
          239 1392 1859 rmoveto
          -254 hlineto
          -287 -300 rlineto
          213 hlineto
          439 -622 rmoveto
          1 11 0 11 18 vvcurveto
          295 -13 -233 195 -324 hhcurveto
          -457 -316 -364 -507 -342 194 -231 311 -40 hvcurveto
          -71 -116 -21 -91 rlineto
          59 hlineto
          100 41 -17 -39 -39 -43 -22 -78 -46 -46 7 13 -38 hvcurveto
          -27 -130 rlineto
          -14 38 67 -10 60 hhcurveto
          161 111 86 125 91 -63 53 -110 2 hvcurveto
          60 96 296 19 232 189 65 280 rlinecurve
          -254 hlineto
          -163 -60 -143 -99 -176 hhcurveto
          -219 -135 154 251 366 201 265 292 179 135 -106 -167 14 hvcurveto
          -16 1 -8 -6 vvcurveto
          endchar
        </CharString>
        <CharString name="Ccircumflex">
          239 1248 937 -94 callgsubr
          -140 927 -94 callsubr
        </CharString>
        <CharString name="Cdotaccent">
          239 1248 937 -94 callgsubr
          -254 672 -101 callgsubr
        </CharString>
        <CharString name="Checyrillic">
          9 callsubr
          endchar
        </CharString>
        <CharString name="Chigreek">
          152 -34 31 callgsubr
        </CharString>
        <CharString name="D">
          231 367 1443 26 callgsubr
        </CharString>
        <CharString name="Dcaron">
          231 367 1443 -89 callgsubr
          369 1330 -86 callgsubr
        </CharString>
        <CharString name="Dcircumflexbelow">
          231 367 1443 -89 callgsubr
          263 -387 -94 callsubr
        </CharString>
        <CharString name="Dcommaaccent">
          231 367 1443 -89 callgsubr
          55 -698 -41 callsubr
        </CharString>
        <CharString name="Dcroat">
          231 368 222 rmoveto
          86 399 rlineto
          283 hlineto
          46 223 rlineto
          -281 hlineto
          81 378 rlineto
          208 hlineto
          253 135 -138 -249 -365 -224 -248 -312 hvcurveto
          -276 1221 rmoveto
          -127 -599 rlineto
          -130 hlineto
          -47 -223 rlineto
          130 hlineto
          -131 -621 rlineto
          610 hlineto
          459 313 357 511 362 -231 213 -368 hvcurveto
          endchar
        </CharString>
        <CharString name="Ddotaccent">
          231 367 1443 -89 callgsubr
          501 1386 -101 callgsubr
        </CharString>
        <CharString name="Ddotbelow">
          231 367 1443 -89 callgsubr
          143 -672 -101 callgsubr
        </CharString>
        <CharString name="Decyrillic">
          284 543 583 rmoveto
          179 637 rlineto
          493 hlineto
          -214 -997 rlineto
          -629 hlineto
          3 16 81 76 43 109 44 159 rlinecurve
          -378 -583 rmoveto
          995 hlineto
          -61 -285 rlineto
          235 hlineto
          70 callgsubr
          -983 hlineto
          -232 -843 -53 -194 -58 -117 -116 -66 rlinecurve
          -103 hlineto
          -107 -508 rlineto
          234 hlineto
          endchar
        </CharString>
        <CharString name="Deltagreek">
          170 1243 hmoveto
          33 157 -199 1286 119 callgsubr
          -754 -1285 -33 -158 rlineto
          879 1188 rmoveto
          5 hlineto
          138 -961 -1 -4 rlineto
          -687 hlineto
          1 5 rlineto
          endchar
        </CharString>
        <CharString name="Djecyrillic">
          502 426 hmoveto
          261 hlineto
          107 501 rlineto
          101 70 141 76 130 hhcurveto
          153 90 -86 -147 -163 -124 -116 -172 -63 -51 8 6 -15 hvcurveto
          -45 -214 rlineto
          -7 16 70 -11 88 hhcurveto
          341 221 223 312 254 -162 170 -282 -133 -124 -52 -77 -77 hvcurveto
          -14 hlineto
          95 442 rlineto
          437 hlineto
          46 223 rlineto
          -1134 hlineto
          -46 -223 rlineto
          436 hlineto
          endchar
        </CharString>
        <CharString name="Dlinebelow">
          231 367 1443 -89 callgsubr
          496 -461 -79 callsubr
        </CharString>
        <CharString name="Dzecyrillic">
          80 93 424 rmoveto
          -102 callsubr
          endchar
        </CharString>
        <CharString name="Dzhecyrillic">
          262 1265 hmoveto
          -69 callsubr
          -260 81 callgsubr
          -682 hlineto
          260 1219 rlineto
          -258 -97 callsubr
          516 hlineto
          -61 -285 rlineto
          224 hlineto
          61 285 rlineto
          endchar
        </CharString>
        <CharString name="E">
          -49 1041 223 -101 callsubr
          endchar
        </CharString>
        <CharString name="Eacute">
          -49 1041 223 -101 callsubr
          -36 1558 -82 callgsubr
        </CharString>
        <CharString name="Ebreve">
          -49 1041 223 -101 callsubr
          -425 1856 -75 callsubr
          endchar
        </CharString>
        <CharString name="Ecaron">
          -49 1041 223 -101 callsubr
          -238 1552 -86 callgsubr
        </CharString>
        <CharString name="Ecedilla">
          -49 1255 1220 rmoveto
          47 223 rlineto
          -935 hlineto
          -307 -1443 rlineto
          410 hlineto
          -82 -133 -21 -91 rlineto
          59 hlineto
          100 41 -17 -39 -39 -43 -22 -78 -46 -46 7 13 -38 hvcurveto
          -27 -130 rlineto
          -14 38 67 -10 60 hhcurveto
          161 111 86 125 91 -63 53 -110 2 hvcurveto
          74 118 rlineto
          368 hlineto
          46 223 rlineto
          -674 hlineto
          88 404 rlineto
          636 hlineto
          44 210 rlineto
          -637 hlineto
          84 383 rlineto
          endchar
        </CharString>
        <CharString name="Ecedillabreve">
          -49 1096 1856 rmoveto
          -112 -26 -88 -69 -109 hhcurveto
          -95 -56 51 85 16 3 16 4 13 hvcurveto
          -159 hlineto
          -6 -21 -3 -24 -25 vvcurveto
          -144 114 -102 174 219 148 126 190 43 vhcurveto
          -4 -636 rmoveto
          47 223 rlineto
          -935 hlineto
          -307 -1443 rlineto
          410 hlineto
          -82 -133 -21 -91 rlineto
          59 hlineto
          100 41 -17 -39 -39 -43 -22 -78 -46 -46 7 13 -38 hvcurveto
          -27 -130 rlineto
          -14 38 67 -10 60 hhcurveto
          161 111 86 125 91 -63 53 -110 2 hvcurveto
          74 118 rlineto
          368 hlineto
          46 223 rlineto
          -674 hlineto
          88 404 rlineto
          636 hlineto
          44 210 rlineto
          -637 hlineto
          84 383 rlineto
          endchar
        </CharString>
        <CharString name="Ecircumflex">
          -49 1041 223 -101 callsubr
          8 1863 -94 callsubr
        </CharString>
        <CharString name="Ecircumflexacute">
          -49 1041 223 -101 callsubr
          -199 1813 -57 callsubr
          43 50 8 callsubr
          -228 hlineto
          endchar
        </CharString>
        <CharString name="Ecircumflexbelow">
          -49 1041 223 -101 callsubr
          -393 -165 -94 callsubr
        </CharString>
        <CharString name="Ecircumflexdotbelow">
          -49 1041 223 -101 callsubr
          8 1863 -95 callsubr
          -729 -2002 -101 callgsubr
        </CharString>
        <CharString name="Ecircumflexgrave">
          -49 1041 223 -101 callsubr
          -199 1813 -57 callsubr
          266 50 rmoveto
          -128 239 rlineto
          -206 hlineto
          157 -239 rlineto
          endchar
        </CharString>
        <CharString name="Ecircumflexhookabove">
          -49 1041 223 -101 callsubr
          -199 1813 -57 callsubr
          23 162 rmoveto
          9 29 29 4 31 hhcurveto
          55 35 -25 -38 -45 -42 -36 -58 -16 hvcurveto
          67 -93 rlineto
          115 39 75 81 101 vvcurveto
          93 -77 60 -121 -38 -47 -7 -11 -25 vhcurveto
          endchar
        </CharString>
        <CharString name="Ecircumflextilde">
          -49 1041 223 -101 callsubr
          63 1861 -44 callsubr
        </CharString>
        <CharString name="Ecyrillic">
          -9 callgsubr
          endchar
        </CharString>
        <CharString name="Edblgrave">
          -49 1041 223 -101 callsubr
          -416 1558 -40 callgsubr
          569 -300 rmoveto
          189 hlineto
          -161 300 rlineto
          -230 hlineto
          endchar
        </CharString>
        <CharString name="Edieresis">
          -49 1041 223 -101 callsubr
          -307 1597 -105 callgsubr
        </CharString>
        <CharString name="Edotaccent">
          -49 1041 223 -101 callsubr
          -106 1608 -101 callgsubr
        </CharString>
        <CharString name="Edotbelow">
          -49 1041 223 -101 callsubr
          -513 -450 -101 callgsubr
        </CharString>
        <CharString name="Efcyrillic">
          518 914 -27 rmoveto
          33 153 rlineto
          469 15 325 283 393 vvcurveto
          299 -206 194 -334 13 vhcurveto
          31 147 rlineto
          -255 hlineto
          -31 -147 rlineto
          -469 -14 -325 -283 -395 vvcurveto
          -297 206 -194 334 -14 vhcurveto
          -33 -153 rlineto
          -244 667 rmoveto
          258 206 194 281 13 vhcurveto
          -164 -761 rlineto
          -203 9 -120 110 177 vvcurveto
          1063 166 rmoveto
          -255 -205 -194 -282 -13 vhcurveto
          164 761 rlineto
          203 -8 120 -111 -180 vvcurveto
          endchar
        </CharString>
        <CharString name="Egrave">
          -49 1041 223 -101 callsubr
          -248 1558 -40 callgsubr
          endchar
        </CharString>
        <CharString name="Ehookabove">
          -49 1041 223 -101 callsubr
          -291 1778 -64 callgsubr
        </CharString>
        <CharString name="Einvertedbreve">
          -49 1041 223 -101 callsubr
          196 1540 -60 callsubr
        </CharString>
        <CharString name="Elcyrillic">
          197 1200 hmoveto
          -47 callsubr
        </CharString>
        <CharString name="Emacron">
          -49 1041 223 -101 callsubr
          235 1763 -79 callsubr
        </CharString>
        <CharString name="Emacronacute">
          -49 1041 223 -101 callsubr
          199 1597 15 callgsubr
          292 266 8 callsubr
          -229 hlineto
          endchar
        </CharString>
        <CharString name="Emacrongrave">
          -49 1041 223 -101 callsubr
          199 1597 15 callgsubr
          482 266 rmoveto
          -128 33 callsubr
          endchar
        </CharString>
        <CharString name="Emcyrillic">
          555 300 18 callgsubr
        </CharString>
        <CharString name="Encyrillic">
          282 1285 -5 callgsubr
        </CharString>
        <CharString name="Eogonek">
          -49 60 hmoveto
          703 -4 hlineto
          -139 -73 -84 -105 -99 vvcurveto
          -102 85 -67 126 55 52 9 13 25 vhcurveto
          30 145 rlineto
          -8 -18 -28 -4 -27 hhcurveto
          -63 -36 27 46 68 83 81 144 70 hvcurveto
          29 12 44 214 rlineto
          -675 hlineto
          89 404 rlineto
          636 -12 callgsubr
          -637 -13 callsubr
          673 -31 callsubr
          -935 hlineto
          endchar
        </CharString>
        <CharString name="Epsilongreek">
          -49 1041 223 -101 callsubr
          endchar
        </CharString>
        <CharString name="Epsilontonosgreek">
          287 170 3 callsubr
          1064 -1220 -101 callsubr
          endchar
        </CharString>
        <CharString name="Ercyrillic">
          69 372 -58 callgsubr
          endchar
        </CharString>
        <CharString name="Ereversedcyrillic">
          -82 callsubr
          endchar
        </CharString>
        <CharString name="Escyrillic">
          249 1253 937 -94 callgsubr
          endchar
        </CharString>
        <CharString name="Etagreek">
          272 1280 -5 callgsubr
        </CharString>
        <CharString name="Etatonosgreek">
          609 170 3 callsubr
          1303 -1443 -28 callgsubr
        </CharString>
        <CharString name="Eth">
          231 368 222 rmoveto
          86 399 rlineto
          283 hlineto
          46 223 rlineto
          -281 hlineto
          81 378 rlineto
          208 hlineto
          253 135 -138 -249 -365 -224 -248 -312 hvcurveto
          -276 1221 rmoveto
          -127 -599 rlineto
          -130 hlineto
          -47 -223 rlineto
          130 hlineto
          -131 -621 rlineto
          610 hlineto
          459 313 357 511 362 -231 213 -368 hvcurveto
          endchar
        </CharString>
        <CharString name="Etilde">
          -49 1041 223 -101 callsubr
          10 1546 -103 callgsubr
          endchar
        </CharString>
        <CharString name="Etildebelow">
          -49 1041 223 -101 callsubr
          -384 -450 -103 callgsubr
          endchar
        </CharString>
        <CharString name="Euro">
          87 1440 1419 rmoveto
          22 -50 -122 28 -129 hhcurveto
          -389 -279 -201 -320 -108 hvcurveto
          -153 hlineto
          -32 -151 rlineto
          149 hlineto
          -8 -51 -5 -54 -55 vvcurveto
          -172 hlineto
          -32 -151 rlineto
          219 hlineto
          -308 68 288 -196 385 hhcurveto
          27 36 3 3 13 hvcurveto
          48 225 rlineto
          -3 -15 -33 -3 -20 hhcurveto
          -271 -181 103 176 -65 hvcurveto
          445 hlineto
          32 151 rlineto
          -503 hlineto
          2 0 1 2 vvcurveto
          55 5 51 9 49 vhcurveto
          525 hlineto
          33 151 rlineto
          -509 hlineto
          182 86 172 109 236 hhcurveto
          105 102 -24 -20 45 hvcurveto
          endchar
        </CharString>
        <CharString name="F">
          -96 326 12 callgsubr
          endchar
        </CharString>
        <CharString name="Fdotaccent">
          -96 326 12 callgsubr
          830 1608 -101 callgsubr
        </CharString>
        <CharString name="G">
          -93 callsubr
          endchar
        </CharString>
        <CharString name="Gacute">
          -93 callsubr
          -389 1001 -82 callgsubr
        </CharString>
        <CharString name="Gammagreek">
          -116 327 hmoveto
          260 66 callsubr
          634 -31 callsubr
          -901 -97 callsubr
          endchar
        </CharString>
        <CharString name="Gbreve">
          -93 callsubr
          -778 1299 -75 callsubr
          endchar
        </CharString>
        <CharString name="Gcaron">
          -93 callsubr
          -591 995 -86 callgsubr
        </CharString>
        <CharString name="Gcircumflex">
          -93 callsubr
          -345 1306 -94 callsubr
        </CharString>
        <CharString name="Gcommaaccent">
          -93 callsubr
          -828 -1033 -41 callsubr
        </CharString>
        <CharString name="Gdotaccent">
          -93 callsubr
          -460 1051 -101 callgsubr
        </CharString>
        <CharString name="Gecyrillic">
          64 callsubr
          endchar
        </CharString>
        <CharString name="Geupturncyrillic">
          -99 587 1220 rmoveto
          650 hlineto
          91 callgsubr
          -242 hlineto
          -60 -285 rlineto
          -670 -97 callsubr
          261 hlineto
          endchar
        </CharString>
        <CharString name="Gjecyrillic">
          64 callsubr
          876 1558 -82 callgsubr
        </CharString>
        <CharString name="Gmacron">
          -93 callsubr
          -118 1206 -79 callsubr
        </CharString>
        <CharString name="H">
          272 1280 -5 callgsubr
        </CharString>
        <CharString name="Hardsigncyrillic">
          285 878 hmoveto
          339 248 210 317 265 -191 158 -290 89 callgsubr
          106 493 rlineto
          -593 hlineto
          -46 -223 rlineto
          333 hlineto
          -261 -1220 rlineto
          641 734 rmoveto
          163 109 -74 -152 -173 -144 -121 -192 hvcurveto
          -273 hlineto
          113 520 rlineto
          endchar
        </CharString>
        <CharString name="Hbar">
          272 1195 845 rmoveto
          -692 hlineto
          44 207 rlineto
          692 hlineto
          411 199 rmoveto
          -104 hlineto
          41 192 rlineto
          -264 hlineto
          -41 -192 rlineto
          -692 hlineto
          41 192 rlineto
          -264 hlineto
          -41 -192 rlineto
          -108 hlineto
          -41 -199 rlineto
          107 hlineto
          -224 -1052 rlineto
          264 hlineto
          133 624 rlineto
          693 hlineto
          -134 -624 rlineto
          264 hlineto
          224 1052 rlineto
          104 hlineto
          endchar
        </CharString>
        <CharString name="Hbrevebelow">
          272 1280 hmoveto
          -91 callsubr
          -704 -151 -2 callsubr
        </CharString>
        <CharString name="Hcaron">
          272 1280 hmoveto
          -91 callsubr
          -114 1552 -86 callgsubr
        </CharString>
        <CharString name="Hcedilla">
          272 1323 1443 rmoveto
          -128 -598 rlineto
          -692 hlineto
          128 598 rlineto
          -264 hlineto
          -307 -1443 rlineto
          107 hlineto
          -82 -133 -21 -91 rlineto
          59 hlineto
          100 41 -17 -39 -39 -43 -22 -78 -46 -46 7 13 -38 hvcurveto
          -27 -130 rlineto
          -14 38 67 -10 60 hhcurveto
          161 111 86 125 91 -63 53 -110 2 hvcurveto
          74 118 133 624 rlineto
          693 hlineto
          -134 -624 rlineto
          264 hlineto
          307 1443 rlineto
          endchar
        </CharString>
        <CharString name="Hcircumflex">
          272 1280 hmoveto
          -91 callsubr
          132 1863 -94 callsubr
        </CharString>
        <CharString name="Hdieresis">
          272 1280 hmoveto
          -91 callsubr
          -183 1597 -105 callgsubr
        </CharString>
        <CharString name="Hdotaccent">
          272 1280 hmoveto
          -91 callsubr
          18 1608 -101 callgsubr
        </CharString>
        <CharString name="Hdotbelow">
          272 1280 hmoveto
          -91 callsubr
          -395 -450 -101 callgsubr
        </CharString>
        <CharString name="I">
          -687 321 84 callgsubr
        </CharString>
        <CharString name="I.1">
          -246 1075 1231 rmoveto
          45 212 rlineto
          -272 hlineto
          -261 hlineto
          -271 hlineto
          -44 -212 rlineto
          270 hlineto
          -217 -1019 rlineto
          -271 hlineto
          -45 -212 rlineto
          271 hlineto
          261 hlineto
          272 hlineto
          44 212 rlineto
          -271 hlineto
          217 1019 rlineto
          endchar
        </CharString>
        <CharString name="IAcyrillic">
          -62 callgsubr
          endchar
        </CharString>
        <CharString name="IJ">
          413 321 hmoveto
          -90 callsubr
          516 366 -63 callgsubr
          endchar
        </CharString>
        <CharString name="IJacute">
          413 321 hmoveto
          -90 callsubr
          571 1558 rmoveto
          328 300 97 callgsubr
          -287 -300 rlineto
          1313 hmoveto
          328 300 97 callgsubr
          -287 -300 rlineto
          -942 -1192 -63 callgsubr
          endchar
        </CharString>
        <CharString name="IUcyrillic">
          869 1321 202 rmoveto
          -215 -138 160 251 346 206 282 287 216 138 -160 -251 -347 -207 -281 -287 hvcurveto
          -816 644 rmoveto
          128 597 rlineto
          -261 hlineto
          -307 -1443 rlineto
          260 hlineto
          133 623 rlineto
          250 hlineto
          -8 0 -7 -8 vvcurveto
          -369 235 -255 374 434 327 374 493 369 -236 255 -377 -359 -282 -255 -366 -88 vhcurveto
          endchar
        </CharString>
        <CharString name="Iacute">
          -687 321 hmoveto
          -90 callsubr
          571 1558 -82 callgsubr
        </CharString>
        <CharString name="Iacute.1">
          -246 1178 1858 rmoveto
          -254 hlineto
          -287 -300 rlineto
          213 hlineto
          -263 -115 rmoveto
          -271 hlineto
          -44 -212 rlineto
          270 hlineto
          -217 -1019 rlineto
          -271 hlineto
          -45 -212 rlineto
          271 hlineto
          261 hlineto
          272 hlineto
          44 212 rlineto
          -271 hlineto
          217 1019 rlineto
          272 hlineto
          45 212 rlineto
          -272 hlineto
          endchar
        </CharString>
        <CharString name="Ibreve">
          -687 321 hmoveto
          -90 callsubr
          182 1856 -75 callsubr
          endchar
        </CharString>
        <CharString name="Ibreve.1">
          -246 987 1856 rmoveto
          -112 -26 -88 -69 -109 hhcurveto
          -95 -56 51 85 16 3 16 4 13 hvcurveto
          -159 hlineto
          -6 -21 -3 -24 -25 vvcurveto
          -144 114 -102 174 219 148 126 190 43 vhcurveto
          -563 -413 rmoveto
          -271 hlineto
          -44 -212 rlineto
          270 hlineto
          -217 -1019 rlineto
          -271 hlineto
          -45 -212 rlineto
          271 hlineto
          261 hlineto
          272 hlineto
          44 212 rlineto
          -271 hlineto
          217 1019 rlineto
          272 hlineto
          45 212 rlineto
          -272 hlineto
          endchar
        </CharString>
        <CharString name="Icaron">
          -687 321 hmoveto
          -90 callsubr
          369 1552 -86 callgsubr
        </CharString>
        <CharString name="Icaron.1">
          -246 840 1552 rmoveto
          340 311 rlineto
          -210 hlineto
          -205 -192 rlineto
          -7 hlineto
          -125 192 rlineto
          -193 hlineto
          208 -311 rlineto
          -61 -109 rmoveto
          -271 hlineto
          -44 -212 rlineto
          270 hlineto
          -217 -1019 rlineto
          -271 hlineto
          -45 -212 rlineto
          271 hlineto
          261 hlineto
          272 hlineto
          44 212 rlineto
          -271 hlineto
          217 1019 rlineto
          272 hlineto
          45 212 rlineto
          -272 hlineto
          endchar
        </CharString>
        <CharString name="Icircumflex">
          -687 321 hmoveto
          -90 callsubr
          615 1863 -94 callsubr
        </CharString>
        <CharString name="Icircumflex.1">
          -246 778 1744 rmoveto
          7 hlineto
          124 -192 rlineto
          193 hlineto
          -208 311 rlineto
          -191 hlineto
          -340 -311 rlineto
          209 hlineto
          503 -321 rmoveto
          45 212 rlineto
          -272 hlineto
          -261 hlineto
          -271 hlineto
          -44 -212 rlineto
          270 hlineto
          -217 -1019 rlineto
          -271 hlineto
          -45 -212 rlineto
          271 hlineto
          261 hlineto
          272 hlineto
          44 212 rlineto
          -271 hlineto
          217 1019 rlineto
          endchar
        </CharString>
        <CharString name="Icyrillic">
          72 callsubr
        </CharString>
        <CharString name="Icyrillic.1">
          -226 1085 1231 rmoveto
          45 212 rlineto
          -272 hlineto
          -261 hlineto
          -271 hlineto
          -44 -212 rlineto
          270 hlineto
          -217 -1019 rlineto
          -271 hlineto
          -45 -212 rlineto
          271 hlineto
          261 hlineto
          272 hlineto
          44 212 rlineto
          -271 hlineto
          217 1019 rlineto
          endchar
        </CharString>
        <CharString name="Idblgrave">
          -687 321 hmoveto
          -90 callsubr
          191 1558 -40 callgsubr
          569 -300 rmoveto
          189 hlineto
          -161 300 rlineto
          -230 hlineto
          endchar
        </CharString>
        <CharString name="Idblgrave.1">
          -246 1027 1558 rmoveto
          -161 300 rlineto
          -230 hlineto
          202 -300 rlineto
          -179 0 rmoveto
          -161 300 rlineto
          -229 hlineto
          201 -300 rlineto
          605 -327 rmoveto
          45 212 rlineto
          -272 hlineto
          -261 hlineto
          -271 hlineto
          -44 -212 rlineto
          270 hlineto
          -217 -1019 rlineto
          -271 hlineto
          -45 -212 rlineto
          271 hlineto
          261 hlineto
          272 hlineto
          44 212 rlineto
          -271 hlineto
          217 1019 rlineto
          endchar
        </CharString>
        <CharString name="Idieresis">
          15 callsubr
        </CharString>
        <CharString name="Idieresis.1">
          -246 966 1597 rmoveto
          68 54 54 67 67 -54 54 -68 -68 -54 -54 -67 -67 54 -54 68 hvcurveto
          -387 0 rmoveto
          69 54 54 67 67 -54 54 -69 -68 -54 -54 -67 -67 54 -54 68 hvcurveto
          496 -366 rmoveto
          45 212 rlineto
          -272 hlineto
          -261 hlineto
          -271 hlineto
          -44 -212 rlineto
          270 hlineto
          -217 -1019 rlineto
          -271 hlineto
          -45 -212 rlineto
          271 hlineto
          261 hlineto
          272 hlineto
          44 212 rlineto
          -271 hlineto
          217 1019 rlineto
          endchar
        </CharString>
        <CharString name="Idieresisacute">
          -687 321 hmoveto
          -90 callsubr
          410 1863 8 callsubr
          -229 hlineto
          -338 -546 -35 callsubr
        </CharString>
        <CharString name="Idieresisacute.1">
          -246 1147 2102 rmoveto
          -229 hlineto
          -229 -239 rlineto
          201 hlineto
          -54 -189 rmoveto
          -66 52 -52 66 67 52 52 66 66 -52 52 -67 -66 -52 -52 -66 vhcurveto
          -256 -118 rmoveto
          66 52 52 66 66 -52 52 -66 -67 -52 -52 -66 -66 52 -52 67 hvcurveto
          7 -113 rmoveto
          -271 hlineto
          -44 -212 rlineto
          270 hlineto
          -217 -1019 rlineto
          -271 hlineto
          -45 -212 rlineto
          271 hlineto
          261 hlineto
          272 hlineto
          44 212 rlineto
          -271 hlineto
          217 1019 rlineto
          272 hlineto
          45 212 rlineto
          -272 hlineto
          endchar
        </CharString>
        <CharString name="Idotaccent">
          -687 321 hmoveto
          -90 callsubr
          501 1608 -101 callgsubr
        </CharString>
        <CharString name="Idotaccent.1">
          -246 780 1608 rmoveto
          78 62 64 77 78 -62 64 -78 -79 -62 -64 -78 -77 62 -64 79 hvcurveto
          295 -377 rmoveto
          45 212 rlineto
          -272 hlineto
          -261 hlineto
          -271 hlineto
          -44 -212 rlineto
          270 hlineto
          -217 -1019 rlineto
          -271 hlineto
          -45 -212 rlineto
          271 hlineto
          261 hlineto
          272 hlineto
          44 212 rlineto
          -271 hlineto
          217 1019 rlineto
          endchar
        </CharString>
        <CharString name="Idotbelow">
          -687 321 hmoveto
          -90 callsubr
          62 -450 -101 callgsubr
        </CharString>
        <CharString name="Idotbelow.1">
          -246 344 -167 rmoveto
          -79 -62 -64 -78 -77 62 -64 79 78 62 64 77 78 -62 64 -78 hvcurveto
          731 1398 rmoveto
          45 212 rlineto
          -272 hlineto
          -261 hlineto
          -271 hlineto
          -44 -212 rlineto
          270 hlineto
          -217 -1019 rlineto
          -271 hlineto
          -45 -212 rlineto
          271 hlineto
          261 hlineto
          272 hlineto
          44 212 rlineto
          -271 hlineto
          217 1019 rlineto
          endchar
        </CharString>
        <CharString name="Iecyrillic">
          -39 1046 223 -101 callsubr
          endchar
        </CharString>
        <CharString name="Igrave">
          -687 321 hmoveto
          -90 callsubr
          359 1558 -40 callgsubr
          endchar
        </CharString>
        <CharString name="Igrave.1">
          -246 827 1558 rmoveto
          -161 300 rlineto
          -229 hlineto
          201 -300 rlineto
          437 -327 rmoveto
          45 212 rlineto
          -272 hlineto
          -261 hlineto
          -271 hlineto
          -44 -212 rlineto
          270 hlineto
          -217 -1019 rlineto
          -271 hlineto
          -45 -212 rlineto
          271 hlineto
          261 hlineto
          272 hlineto
          44 212 rlineto
          -271 hlineto
          217 1019 rlineto
          endchar
        </CharString>
        <CharString name="Ihookabove">
          -687 321 hmoveto
          -90 callsubr
          316 1778 -64 callgsubr
        </CharString>
        <CharString name="Ihookabove.1">
          -246 720 1518 rmoveto
          140 41 87 93 105 vvcurveto
          97 -81 63 -128 -38 -50 -7 -11 -27 vhcurveto
          -28 -121 rlineto
          8 27 35 5 32 hhcurveto
          58 36 -25 -40 -48 -47 -41 -71 -18 hvcurveto
          410 -388 rmoveto
          45 212 rlineto
          -272 hlineto
          -261 hlineto
          -271 hlineto
          -44 -212 rlineto
          270 hlineto
          -217 -1019 rlineto
          -271 hlineto
          -45 -212 rlineto
          271 hlineto
          261 hlineto
          272 hlineto
          44 212 rlineto
          -271 hlineto
          217 1019 rlineto
          endchar
        </CharString>
        <CharString name="Iicyrillic">
          283 1030 hmoveto
          -53 callsubr
          endchar
        </CharString>
        <CharString name="Iinvertedbreve">
          -687 321 hmoveto
          -90 callsubr
          803 1540 -60 callsubr
        </CharString>
        <CharString name="Iinvertedbreve.1">
          -246 1082 1540 rmoveto
          5 18 3 24 25 vvcurveto
          144 -114 105 -174 -219 -147 -129 -187 -43 vhcurveto
          163 hlineto
          109 25 88 71 110 hhcurveto
          94 56 -53 -85 -16 -3 -16 -3 -10 hvcurveto
          152 -309 rmoveto
          45 212 rlineto
          -272 hlineto
          -261 hlineto
          -271 hlineto
          -44 -212 rlineto
          270 hlineto
          -217 -1019 rlineto
          -271 hlineto
          -45 -212 rlineto
          271 hlineto
          261 hlineto
          272 hlineto
          44 212 rlineto
          -271 hlineto
          217 1019 rlineto
          endchar
        </CharString>
        <CharString name="Iishortcyrillic">
          283 1030 hmoveto
          -53 callsubr
          -542 831 -73 callgsubr
        </CharString>
        <CharString name="Imacron">
          -687 321 hmoveto
          -90 callsubr
          842 1763 -79 callsubr
        </CharString>
        <CharString name="Imacron.1">
          -246 1121 1763 rmoveto
          -670 hlineto
          -30 -139 rlineto
          671 hlineto
          -505 -181 rmoveto
          -271 hlineto
          -44 -212 rlineto
          270 hlineto
          -217 -1019 rlineto
          -271 hlineto
          -45 -212 rlineto
          271 hlineto
          261 hlineto
          272 hlineto
          44 212 rlineto
          -271 hlineto
          217 1019 rlineto
          272 hlineto
          45 212 rlineto
          -272 hlineto
          endchar
        </CharString>
        <CharString name="Iocyrillic">
          -39 1046 223 -101 callsubr
          -307 1597 -105 callgsubr
        </CharString>
        <CharString name="Iogonek">
          -687 120 -450 rmoveto
          55 51 9 13 26 hvcurveto
          30 145 rlineto
          -8 -15 -28 -4 -31 hhcurveto
          -61 -37 27 50 67 59 75 129 75 hvcurveto
          25 13 305 1431 rlineto
          -261 hlineto
          -309 -1455 20 -1 rlineto
          -112 -94 -57 -88 -85 vvcurveto
          -102 85 -68 126 vhcurveto
          endchar
        </CharString>
        <CharString name="Iogonek.1">
          -246 272 1231 rmoveto
          271 hlineto
          -218 -1019 rlineto
          -271 hlineto
          -45 -212 rlineto
          572 -4 hlineto
          -138 -73 -85 -104 -100 vvcurveto
          -103 86 -66 125 55 51 9 13 26 vhcurveto
          30 145 rlineto
          -8 -17 -28 -4 -29 hhcurveto
          -63 -35 27 46 71 88 80 139 68 hvcurveto
          29 12 42 203 rlineto
          -272 hlineto
          219 1019 rlineto
          271 hlineto
          45 212 rlineto
          -804 hlineto
          endchar
        </CharString>
        <CharString name="Iotadieresisgreek">
          15 callsubr
        </CharString>
        <CharString name="Iotadieresisgreek.1">
          -246 966 1597 rmoveto
          68 54 54 67 67 -54 54 -68 -68 -54 -54 -67 -67 54 -54 68 hvcurveto
          -387 0 rmoveto
          69 54 54 67 67 -54 54 -69 -68 -54 -54 -67 -67 54 -54 68 hvcurveto
          496 -366 rmoveto
          45 212 rlineto
          -272 hlineto
          -261 hlineto
          -271 hlineto
          -44 -212 rlineto
          270 hlineto
          -217 -1019 rlineto
          -271 hlineto
          -45 -212 rlineto
          271 hlineto
          261 hlineto
          272 hlineto
          44 212 rlineto
          -271 hlineto
          217 1019 rlineto
          endchar
        </CharString>
        <CharString name="Iotagreek">
          -687 321 84 callgsubr
        </CharString>
        <CharString name="Iotagreek.1">
          -246 1075 1231 rmoveto
          45 212 rlineto
          -272 hlineto
          -261 hlineto
          -271 hlineto
          -44 -212 rlineto
          270 hlineto
          -217 -1019 rlineto
          -271 hlineto
          -45 -212 rlineto
          271 hlineto
          261 hlineto
          272 hlineto
          44 212 rlineto
          -271 hlineto
          217 1019 rlineto
          endchar
        </CharString>
        <CharString name="Iotatonosgreek">
          -351 170 3 callsubr
          344 -1443 -71 callgsubr
          endchar
        </CharString>
        <CharString name="Iotatonosgreek.1">
          116 314 1443 rmoveto
          -144 -314 rlineto
          199 hlineto
          221 314 rlineto
          846 -212 rmoveto
          45 212 rlineto
          -272 hlineto
          -261 hlineto
          -271 hlineto
          -44 -212 rlineto
          270 hlineto
          -217 -1019 rlineto
          -271 hlineto
          -45 -212 rlineto
          271 hlineto
          261 hlineto
          272 hlineto
          44 212 rlineto
          -271 hlineto
          217 1019 rlineto
          endchar
        </CharString>
        <CharString name="Itilde">
          -687 321 hmoveto
          -90 callsubr
          617 1546 -103 callgsubr
          endchar
        </CharString>
        <CharString name="Itilde.1">
          -246 1000 1816 rmoveto
          -86 -19 -37 -44 -42 hhcurveto
          -76 -26 141 -143 hhcurveto
          -122 -98 -102 -166 -31 hvcurveto
          145 hlineto
          82 17 39 45 44 hhcurveto
          79 29 -140 137 hhcurveto
          118 98 106 164 34 hvcurveto
          -559 -373 rmoveto
          -271 hlineto
          -44 -212 rlineto
          270 hlineto
          -217 -1019 rlineto
          -271 hlineto
          -45 -212 rlineto
          271 hlineto
          261 hlineto
          272 hlineto
          44 212 rlineto
          -271 hlineto
          217 1019 rlineto
          272 hlineto
          45 212 rlineto
          -272 hlineto
          endchar
        </CharString>
        <CharString name="Itildebelow">
          -687 321 hmoveto
          -90 callsubr
          191 -450 -103 callgsubr
          endchar
        </CharString>
        <CharString name="Itildebelow.1">
          -246 128 -437 rmoveto
          82 17 39 45 44 hhcurveto
          79 29 -140 137 hhcurveto
          118 98 106 164 34 hvcurveto
          -146 hlineto
          -86 -19 -37 -44 -42 hhcurveto
          -76 -26 141 -143 hhcurveto
          -122 -98 -102 -166 -31 hvcurveto
          1092 1668 rmoveto
          45 212 rlineto
          -272 hlineto
          -261 hlineto
          -271 hlineto
          -44 -212 rlineto
          270 hlineto
          -217 -1019 rlineto
          -271 hlineto
          -45 -212 rlineto
          271 hlineto
          261 hlineto
          272 hlineto
          44 212 rlineto
          -271 hlineto
          217 1019 rlineto
          endchar
        </CharString>
        <CharString name="J">
          -107 56 366 -63 callgsubr
          endchar
        </CharString>
        <CharString name="Jcircumflex">
          -107 56 366 -63 callgsubr
          1199 1497 -94 callsubr
        </CharString>
        <CharString name="Jecyrillic">
          -97 61 366 -63 callgsubr
          endchar
        </CharString>
        <CharString name="K">
          -69 callgsubr
          endchar
        </CharString>
        <CharString name="Kacute">
          -69 callgsubr
          952 1558 -82 callgsubr
        </CharString>
        <CharString name="Kacyrillic">
          129 1525 1443 rmoveto
          -319 hlineto
          -698 -635 rlineto
          -10 hlineto
          135 635 rlineto
          -261 hlineto
          -307 -1443 rlineto
          261 hlineto
          138 645 rlineto
          11 hlineto
          467 -645 rlineto
          300 hlineto
          -513 720 rlineto
          endchar
        </CharString>
        <CharString name="Kappagreek">
          -69 callgsubr
          endchar
        </CharString>
        <CharString name="Kcaron">
          -69 callgsubr
          750 1552 -86 callgsubr
        </CharString>
        <CharString name="Kcommaaccent">
          -69 callgsubr
          402 -476 -41 callsubr
        </CharString>
        <CharString name="Kdotbelow">
          -69 callgsubr
          490 -450 -101 callgsubr
        </CharString>
        <CharString name="Kjecyrillic">
          129 1334 1858 rmoveto
          -254 hlineto
          -287 -300 rlineto
          213 hlineto
          519 -115 rmoveto
          -319 hlineto
          -698 -635 rlineto
          -10 hlineto
          135 635 rlineto
          -261 hlineto
          -307 -1443 rlineto
          261 hlineto
          138 645 rlineto
          11 hlineto
          467 -645 rlineto
          300 hlineto
          -513 720 rlineto
          endchar
        </CharString>
        <CharString name="Klinebelow">
          -69 callgsubr
          843 -239 -79 callsubr
        </CharString>
        <CharString name="L">
          -105 1027 226 67 callgsubr
        </CharString>
        <CharString name="Lacute">
          -105 1027 226 -38 callsubr
          -351 1558 -82 callgsubr
        </CharString>
        <CharString name="Lambdagreek">
          128 857 49 callgsubr
          5 hlineto
          119 -1177 rlineto
          255 hlineto
          -180 1443 119 callgsubr
          -802 -34 callsubr
          277 hlineto
          endchar
        </CharString>
        <CharString name="Lcaron">
          -105 926 79 callgsubr
          -106 -498 rlineto
          169 hlineto
          155 498 rlineto
          -117 -1217 67 callgsubr
        </CharString>
        <CharString name="Lcircumflexbelow">
          -105 1027 226 -38 callsubr
          -403 -165 -94 callsubr
        </CharString>
        <CharString name="Lcommaaccent">
          -105 1027 226 -38 callsubr
          -611 -476 -41 callsubr
        </CharString>
        <CharString name="Ldotbelow">
          -105 1027 226 -38 callsubr
          -523 -450 -101 callgsubr
        </CharString>
        <CharString name="Ldotbelowmacron">
          -105 1027 226 -38 callsubr
          -523 -450 -102 callgsubr
          443 2213 -79 callsubr
        </CharString>
        <CharString name="Ljecyrillic">
          931 559 561 rmoveto
          180 659 rlineto
          455 hlineto
          -261 -1220 rlineto
          589 hlineto
          354 235 245 292 265 -191 161 -290 89 callgsubr
          103 480 rlineto
          -948 hlineto
          -231 -866 rlineto
          -204 -55 -72 -148 -148 hhcurveto
          -22 -26 4 3 -13 hvcurveto
          -48 -231 rlineto
          -6 17 34 -6 41 hhcurveto
          307 125 209 363 98 hvcurveto
          1018 186 rmoveto
          163 109 -77 -162 -166 -145 -128 -194 hvcurveto
          -272 hlineto
          115 533 rlineto
          endchar
        </CharString>
        <CharString name="Llinebelow">
          -105 1027 226 -38 callsubr
          -170 -239 -79 callsubr
        </CharString>
        <CharString name="Lslash">
          -105 368 226 rmoveto
          90 421 315 148 46 221 -314 -147 123 574 rlineto
          -261 hlineto
          -151 -710 -144 -68 -46 -220 143 67 -109 -512 rlineto
          921 hlineto
          46 226 rlineto
          endchar
        </CharString>
        <CharString name="M">
          545 295 18 callgsubr
        </CharString>
        <CharString name="Macute">
          545 295 -68 callsubr
          1139 1558 -82 callgsubr
        </CharString>
        <CharString name="Mdotaccent">
          545 295 -68 callsubr
          1068 1608 -101 callgsubr
        </CharString>
        <CharString name="Mdotbelow">
          545 295 -68 callsubr
          679 -450 -101 callgsubr
        </CharString>
        <CharString name="Mugreek">
          545 295 18 callgsubr
        </CharString>
        <CharString name="N">
          251 -87 callgsubr
          endchar
        </CharString>
        <CharString name="Nacute">
          251 -87 callgsubr
          1032 1558 -82 callgsubr
        </CharString>
        <CharString name="Ncaron">
          251 -87 callgsubr
          830 1552 -86 callgsubr
        </CharString>
        <CharString name="Ncircumflexbelow">
          251 -87 callgsubr
          663 -165 -94 callsubr
        </CharString>
        <CharString name="Ncommaaccent">
          251 -87 callgsubr
          455 -476 -41 callsubr
        </CharString>
        <CharString name="Ndotaccent">
          251 -87 callgsubr
          961 1608 -101 callgsubr
        </CharString>
        <CharString name="Ndotbelow">
          251 -87 callgsubr
          543 -450 -101 callgsubr
        </CharString>
        <CharString name="Ngrave">
          251 -87 callgsubr
          820 1558 -40 callgsubr
          endchar
        </CharString>
        <CharString name="Njecyrillic">
          934 957 hmoveto
          589 hlineto
          349 218 219 261 228 -182 144 -277 hvcurveto
          -256 hlineto
          127 591 rlineto
          -261 hlineto
          -126 -590 rlineto
          -629 hlineto
          127 590 rlineto
          -260 -97 callsubr
          259 hlineto
          136 633 rlineto
          628 hlineto
          170 -419 rmoveto
          92 426 rlineto
          251 hlineto
          146 99 -60 -127 -137 -120 -102 -193 hvcurveto
          endchar
        </CharString>
        <CharString name="Nlinebelow">
          251 -87 callgsubr
          896 -239 -79 callsubr
        </CharString>
        <CharString name="Ntilde">
          251 -87 callgsubr
          1078 1546 -103 callgsubr
          endchar
        </CharString>
        <CharString name="Nugreek">
          251 -87 callgsubr
          endchar
        </CharString>
        <CharString name="NumberSignCyrillic">
          1053 318 hmoveto
          216 1002 rlineto
          17 hlineto
          458 -1002 rlineto
          228 -56 callsubr
          -249 hlineto
          -216 -1000 rlineto
          -17 hlineto
          -459 1000 rlineto
          -227 -97 callsubr
          2117 441 rmoveto
          40 193 rlineto
          -671 hlineto
          -40 -193 rlineto
          630 685 rmoveto
          -124 -78 -87 -110 -89 -58 64 99 124 76 86 109 90 60 -65 -97 vhcurveto
          204 7 rmoveto
          199 -137 131 -207 -232 -168 -165 -228 -199 136 -131 206 234 168 164 229 vhcurveto
          endchar
        </CharString>
        <CharString name="O">
          333 924 1241 -106 callsubr
          endchar
        </CharString>
        <CharString name="OE">
          1035 1171 hmoveto
          900 hlineto
          45 223 rlineto
          -675 hlineto
          88 404 rlineto
          637 -12 callgsubr
          -638 -13 callsubr
          674 -31 callsubr
          -899 hlineto
          -54 -253 rlineto
          -5 hlineto
          178 -95 -171 99 -222 hhcurveto
          -444 -323 -382 -484 -375 236 -250 354 174 161 66 120 111 hvcurveto
          5 hlineto
          82 668 rmoveto
          -345 -209 -283 -291 -219 -141 160 251 345 209 283 291 63 callgsubr
          vhcurveto
          endchar
        </CharString>
        <CharString name="Oacute">
          333 924 1241 -106 callsubr
          298 1582 -82 callgsubr
        </CharString>
        <CharString name="Obreve">
          333 924 1241 -106 callsubr
          -91 1880 -75 callsubr
          endchar
        </CharString>
        <CharString name="Ocaron">
          333 924 1241 -106 callsubr
          96 1576 -86 callgsubr
        </CharString>
        <CharString name="Ocircumflex">
          333 924 1241 -106 callsubr
          342 1887 -94 callsubr
        </CharString>
        <CharString name="Ocircumflexacute">
          333 924 1241 -106 callsubr
          135 1837 -57 callsubr
          43 50 8 callsubr
          -228 hlineto
          endchar
        </CharString>
        <CharString name="Ocircumflexdotbelow">
          333 924 1241 -106 callsubr
          342 1887 -95 callsubr
          -621 -2002 -101 callgsubr
        </CharString>
        <CharString name="Ocircumflexgrave">
          333 924 1241 -106 callsubr
          135 1837 -57 callsubr
          266 50 rmoveto
          -128 239 rlineto
          -206 hlineto
          157 -239 rlineto
          endchar
        </CharString>
        <CharString name="Ocircumflexhookabove">
          333 924 1241 -106 callsubr
          135 1837 -57 callsubr
          23 162 rmoveto
          9 29 29 4 31 hhcurveto
          55 35 -25 -38 -45 -42 -36 -58 -16 hvcurveto
          67 -93 rlineto
          115 39 75 81 101 vvcurveto
          93 -77 60 -121 -38 -47 -7 -11 -25 vhcurveto
          endchar
        </CharString>
        <CharString name="Ocircumflextilde">
          333 924 1241 -106 callsubr
          397 1885 -44 callsubr
        </CharString>
        <CharString name="Ocyrillic">
          343 929 1241 -106 callsubr
          endchar
        </CharString>
        <CharString name="Odblgrave">
          333 924 1241 -106 callsubr
          -82 1582 -40 callgsubr
          569 -300 rmoveto
          189 hlineto
          -161 300 rlineto
          -230 hlineto
          endchar
        </CharString>
        <CharString name="Odieresis">
          333 924 1241 -106 callsubr
          27 1621 -105 callgsubr
        </CharString>
        <CharString name="Odieresismacron">
          333 924 1241 -106 callsubr
          22 1815 rmoveto
          -41 callgsubr
          609 267 rmoveto
          58 callgsubr
          670 hlineto
          -197 -129 rmoveto
          36 callgsubr
        </CharString>
        <CharString name="Odotaccent">
          333 924 1241 -106 callsubr
          227 1632 -101 callgsubr
        </CharString>
        <CharString name="Odotaccentmacron">
          333 924 1241 -106 callsubr
          218 1587 14 callsubr
        </CharString>
        <CharString name="Odotbelow">
          333 924 1241 -106 callsubr
          -71 -426 -101 callgsubr
        </CharString>
        <CharString name="Ograve">
          333 924 1241 -106 callsubr
          86 1582 -40 callgsubr
          endchar
        </CharString>
        <CharString name="Ohookabove">
          333 924 1241 -106 callsubr
          43 1802 -64 callgsubr
        </CharString>
        <CharString name="Ohorn">
          -88 callsubr
          endchar
        </CharString>
        <CharString name="Ohornacute">
          -88 callsubr
          -470 715 -82 callgsubr
        </CharString>
        <CharString name="Ohorndotbelow">
          -88 callsubr
          -839 -1293 -101 callgsubr
        </CharString>
        <CharString name="Ohorngrave">
          -88 callsubr
          -682 715 -40 callgsubr
          endchar
        </CharString>
        <CharString name="Ohornhookabove">
          -88 callsubr
          -725 935 -64 callgsubr
        </CharString>
        <CharString name="Ohorntilde">
          -88 callsubr
          -424 703 -103 callgsubr
          endchar
        </CharString>
        <CharString name="Ohungarumlaut">
          333 924 1241 -106 callsubr
          488 1582 -1 callsubr
        </CharString>
        <CharString name="Oinvertedbreve">
          333 924 1241 -106 callsubr
          530 1564 -60 callsubr
        </CharString>
        <CharString name="Omacron">
          333 924 1241 -106 callsubr
          569 1787 -79 callsubr
        </CharString>
        <CharString name="Omacronacute">
          333 924 1241 -106 callsubr
          533 93 callgsubr
          292 266 8 callsubr
          -229 hlineto
          endchar
        </CharString>
        <CharString name="Omacrongrave">
          333 924 1241 -106 callsubr
          533 93 callgsubr
          482 266 rmoveto
          -128 33 callsubr
          endchar
        </CharString>
        <CharString name="Omegagreek">
          347 857 hmoveto
          -8 callsubr
        </CharString>
        <CharString name="Omegatonosgreek">
          620 170 3 callsubr
          816 -1443 rmoveto
          -8 callsubr
        </CharString>
        <CharString name="Omicrongreek">
          333 924 1241 -106 callsubr
          endchar
        </CharString>
        <CharString name="Omicrontonosgreek">
          558 170 3 callsubr
          836 -202 -106 callsubr
          endchar
        </CharString>
        <CharString name="Oogonek">
          -21 callgsubr
          endchar
        </CharString>
        <CharString name="Oogonekmacron">
          -21 callgsubr
          64 933 -79 callsubr
        </CharString>
        <CharString name="Oslash">
          333 1257 1004 rmoveto
          18 -51 9 -59 -64 vvcurveto
          -347 -210 -281 -291 -97 -82 32 56 -61 vhcurveto
          -92 149 rmoveto
          -18 51 -9 59 64 vvcurveto
          346 209 282 291 97 82 -32 -57 61 vhcurveto
          445 204 rmoveto
          -119 122 -149 -149 rlineto
          88 -104 -141 50 -169 hhcurveto
          -438 -328 -375 -492 -137 33 -121 61 -99 hvcurveto
          -156 -156 119 -122 149 149 rlineto
          -88 104 141 -50 167 hhcurveto
          438 330 374 493 137 -33 122 -61 98 hvcurveto
          endchar
        </CharString>
        <CharString name="Oslashacute">
          333 1405 1858 rmoveto
          -254 hlineto
          -287 -300 rlineto
          213 hlineto
          180 -554 rmoveto
          18 -51 9 -59 -64 vvcurveto
          -347 -210 -281 -291 -97 -82 32 56 -61 vhcurveto
          -92 149 rmoveto
          -18 51 -9 59 64 vvcurveto
          346 209 282 291 97 82 -32 -57 61 vhcurveto
          445 204 rmoveto
          -119 122 -149 -149 rlineto
          88 -104 -141 50 -169 hhcurveto
          -438 -328 -375 -492 -137 33 -121 61 -99 hvcurveto
          -156 -156 119 -122 149 149 rlineto
          -88 104 141 -50 167 hhcurveto
          438 330 374 493 137 -33 122 -61 98 hvcurveto
          endchar
        </CharString>
        <CharString name="Otilde">
          333 924 1241 -106 callsubr
          344 1570 -103 callgsubr
          endchar
        </CharString>
        <CharString name="Otildeacute">
          333 924 1241 -106 callsubr
          157 1900 rmoveto
          201 hlineto
          254 226 rlineto
          -228 hlineto
          -51 -563 -50 callgsubr
          endchar
        </CharString>
        <CharString name="Otildedieresis">
          333 924 1241 -106 callsubr
          333 1563 -50 callgsubr
          -240 590 rmoveto
          -69 21 callgsubr
          69 68 53 54 67 68 -53 54 -68 69 callgsubr
        </CharString>
        <CharString name="Otildemacron">
          333 924 1241 -106 callsubr
          631 2082 rmoveto
          -670 hlineto
          -30 -138 rlineto
          670 hlineto
          -268 -381 -50 callgsubr
          endchar
        </CharString>
        <CharString name="P">
          59 367 -58 callgsubr
          endchar
        </CharString>
        <CharString name="Pacute">
          59 367 -58 callgsubr
          430 871 -82 callgsubr
        </CharString>
        <CharString name="Pdotaccent">
          59 367 -58 callgsubr
          359 921 -101 callgsubr
        </CharString>
        <CharString name="Pecyrillic">
          262 1265 50 callsubr
        </CharString>
        <CharString name="Phigreek">
          540 662 -91 rmoveto
          245 hlineto
          31 144 rlineto
          499 19 325 316 421 vvcurveto
          318 -199 206 -346 39 vhcurveto
          32 152 rlineto
          -245 hlineto
          -31 -149 rlineto
          -502 -19 -322 -317 -423 vvcurveto
          -309 195 -212 349 -39 vhcurveto
          46 216 rmoveto
          -212 21 -122 127 208 vvcurveto
          312 212 204 310 15 vhcurveto
          56 -890 rmoveto
          189 886 rlineto
          210 -20 123 -126 -208 vvcurveto
          -310 -206 -206 -316 -16 vhcurveto
          endchar
        </CharString>
        <CharString name="Pigreek">
          252 1260 hmoveto
          -69 callsubr
          -1200 -97 callsubr
          263 95 callgsubr
          674 hlineto
          -262 -1220 rlineto
          endchar
        </CharString>
        <CharString name="Psigreek">
          460 890 hmoveto
          66 313 441 21 193 176 74 346 rlinecurve
          124 587 rlineto
          -252 hlineto
          -120 -566 -45 -213 -118 -122 -251 -8 rlinecurve
          195 909 rlineto
          -251 hlineto
          -194 -904 rlineto
          -185 11 -94 68 150 vvcurveto
          36 5 40 12 54 vhcurveto
          114 545 rlineto
          -250 hlineto
          -119 -565 rlineto
          -9 -45 -4 -42 -40 vvcurveto
          -258 163 -146 322 -29 vhcurveto
          -68 -318 rlineto
          endchar
        </CharString>
        <CharString name="Q">
          333 1306 -149 rmoveto
          -121 252 rlineto
          224 155 138 270 315 vvcurveto
          369 -239 255 -381 -438 -328 -375 -492 -369 240 -255 378 73 70 11 20 65 vhcurveto
          77 -156 rlineto
          -281 351 rmoveto
          -219 -140 160 251 346 209 282 291 63 callgsubr
          -206 -80 -183 -130 -105 hvcurveto
          -65 119 rlineto
          -230 hlineto
          116 -239 rlineto
          -9 -38 -36 -5 -38 hhcurveto
          endchar
        </CharString>
        <CharString name="R">
          102 479 746 rmoveto
          104 483 rlineto
          287 hlineto
          140 85 -78 -130 -161 -129 -114 -190 hvcurveto
          -409 697 rmoveto
          -307 -1443 rlineto
          261 hlineto
          116 541 rlineto
          295 hlineto
          173 -541 rlineto
          270 hlineto
          -188 571 rlineto
          236 62 137 195 217 vvcurveto
          235 -160 163 -282 vhcurveto
          endchar
        </CharString>
        <CharString name="Racute">
          102 1260 1858 rmoveto
          -254 hlineto
          -287 -300 rlineto
          213 hlineto
          -453 -812 rmoveto
          104 483 rlineto
          287 hlineto
          140 85 -78 -130 -161 -129 -114 -190 hvcurveto
          -409 697 rmoveto
          -307 -1443 rlineto
          261 hlineto
          116 541 rlineto
          295 hlineto
          173 -541 rlineto
          270 hlineto
          -188 571 rlineto
          236 62 137 195 217 vvcurveto
          235 -160 163 -282 vhcurveto
          endchar
        </CharString>
        <CharString name="Rcaron">
          102 922 1552 rmoveto
          340 311 rlineto
          -210 hlineto
          -205 -192 rlineto
          -7 hlineto
          -125 192 rlineto
          -193 hlineto
          208 -311 rlineto
          -251 -806 rmoveto
          104 483 rlineto
          287 hlineto
          140 85 -78 -130 -161 -129 -114 -190 hvcurveto
          -409 697 rmoveto
          -307 -1443 rlineto
          261 hlineto
          116 541 rlineto
          295 hlineto
          173 -541 rlineto
          270 hlineto
          -188 571 rlineto
          236 62 137 195 217 vvcurveto
          235 -160 163 -282 vhcurveto
          endchar
        </CharString>
        <CharString name="Rcommaaccent">
          102 267 -476 rmoveto
          189 hlineto
          231 346 rlineto
          -226 hlineto
          18 876 rmoveto
          104 483 rlineto
          287 hlineto
          140 85 -78 -130 -161 -129 -114 -190 hvcurveto
          -409 697 rmoveto
          -307 -1443 rlineto
          261 hlineto
          116 541 rlineto
          295 hlineto
          173 -541 rlineto
          270 hlineto
          -188 571 rlineto
          236 62 137 195 217 vvcurveto
          235 -160 163 -282 vhcurveto
          endchar
        </CharString>
        <CharString name="Rdblgrave">
          102 1109 1558 rmoveto
          -161 300 rlineto
          -230 hlineto
          202 -300 rlineto
          -179 0 rmoveto
          -161 300 rlineto
          -229 hlineto
          201 -300 rlineto
          -73 -812 rmoveto
          104 483 rlineto
          287 hlineto
          140 85 -78 -130 -161 -129 -114 -190 hvcurveto
          -409 697 rmoveto
          -307 -1443 rlineto
          261 hlineto
          116 541 rlineto
          295 hlineto
          173 -541 rlineto
          270 hlineto
          -188 571 rlineto
          236 62 137 195 217 vvcurveto
          235 -160 163 -282 vhcurveto
          endchar
        </CharString>
        <CharString name="Rdotaccent">
          102 862 1608 rmoveto
          78 62 64 77 78 -62 64 -78 -79 -62 -64 -78 -77 62 -64 79 hvcurveto
          -383 -862 rmoveto
          104 483 rlineto
          287 hlineto
          140 85 -78 -130 -161 -129 -114 -190 hvcurveto
          -409 697 rmoveto
          -307 -1443 rlineto
          261 hlineto
          116 541 rlineto
          295 hlineto
          173 -541 rlineto
          270 hlineto
          -188 571 rlineto
          236 62 137 195 217 vvcurveto
          235 -160 163 -282 vhcurveto
          endchar
        </CharString>
        <CharString name="Rdotbelow">
          102 544 -167 rmoveto
          -79 -62 -64 -78 -77 62 -64 79 78 62 64 77 78 -62 64 -78 hvcurveto
          -65 913 rmoveto
          104 483 rlineto
          287 hlineto
          140 85 -78 -130 -161 -129 -114 -190 hvcurveto
          -409 697 rmoveto
          -307 -1443 rlineto
          261 hlineto
          116 541 rlineto
          295 hlineto
          173 -541 rlineto
          270 hlineto
          -188 571 rlineto
          236 62 137 195 217 vvcurveto
          235 -160 163 -282 vhcurveto
          endchar
        </CharString>
        <CharString name="Rdotbelowmacron">
          102 1203 1763 rmoveto
          -670 hlineto
          -30 -139 rlineto
          671 hlineto
          -630 -1791 rmoveto
          -79 -62 -64 -78 -77 62 -64 79 78 62 64 77 78 -62 64 -78 hvcurveto
          -65 913 rmoveto
          104 483 rlineto
          287 hlineto
          140 85 -78 -130 -161 -129 -114 -190 hvcurveto
          -409 697 rmoveto
          -307 -1443 rlineto
          261 hlineto
          116 541 rlineto
          295 hlineto
          173 -541 rlineto
          270 hlineto
          -188 571 rlineto
          236 62 137 195 217 vvcurveto
          235 -160 163 -282 vhcurveto
          endchar
        </CharString>
        <CharString name="Rhogreek">
          59 367 -58 callgsubr
          endchar
        </CharString>
        <CharString name="Rinvertedbreve">
          102 1164 1540 rmoveto
          5 18 3 24 25 vvcurveto
          144 -114 105 -174 -219 -147 -129 -187 -43 vhcurveto
          163 hlineto
          109 25 88 71 110 hhcurveto
          94 56 -53 -85 -16 -3 -16 -3 -10 hvcurveto
          -526 -794 rmoveto
          104 483 rlineto
          287 hlineto
          140 85 -78 -130 -161 -129 -114 -190 hvcurveto
          -409 697 rmoveto
          -307 -1443 rlineto
          261 hlineto
          116 541 rlineto
          295 hlineto
          173 -541 rlineto
          270 hlineto
          -188 571 rlineto
          236 62 137 195 217 vvcurveto
          235 -160 163 -282 vhcurveto
          endchar
        </CharString>
        <CharString name="Rlinebelow">
          102 197 -378 rmoveto
          671 hlineto
          29 139 rlineto
          -670 hlineto
          252 985 rmoveto
          104 483 rlineto
          287 hlineto
          140 85 -78 -130 -161 -129 -114 -190 hvcurveto
          -409 697 rmoveto
          -307 -1443 rlineto
          261 hlineto
          116 541 rlineto
          295 hlineto
          173 -541 rlineto
          270 hlineto
          -188 571 rlineto
          236 62 137 195 217 vvcurveto
          235 -160 163 -282 vhcurveto
          endchar
        </CharString>
        <CharString name="S">
          70 88 424 rmoveto
          -102 callsubr
          endchar
        </CharString>
        <CharString name="Sacute">
          70 88 424 rmoveto
          -102 callsubr
          624 1134 -82 callgsubr
        </CharString>
        <CharString name="Sacutedotaccent">
          70 88 424 rmoveto
          -102 callsubr
          770 1136 rmoveto
          328 300 97 callgsubr
          -287 -300 rlineto
          -192 5 -101 callgsubr
        </CharString>
        <CharString name="Scaron">
          70 88 424 rmoveto
          -102 callsubr
          422 1128 -86 callgsubr
        </CharString>
        <CharString name="Scarondotaccent">
          70 88 424 rmoveto
          -102 callsubr
          410 1115 34 callsubr
        </CharString>
        <CharString name="Scedilla">
          70 744 857 rmoveto
          -156 48 -66 58 93 vvcurveto
          102 94 93 177 175 108 -88 -128 6 vhcurveto
          246 hlineto
          269 -1 -218 163 -318 hhcurveto
          -312 -220 -176 -263 -196 120 -120 240 -75 hvcurveto
          113 -35 rlineto
          165 -51 61 -54 -103 vvcurveto
          -128 -122 -74 -165 -188 -127 96 136 -17 vhcurveto
          -251 hlineto
          6 -250 194 -160 274 -32 -71 -115 rcurveline
          -21 -91 rlineto
          59 hlineto
          100 41 -17 -39 -39 -43 -22 -78 -46 -46 7 13 -38 hvcurveto
          -27 -130 rlineto
          -14 38 67 -10 60 hhcurveto
          161 111 86 125 91 -63 53 -110 2 hvcurveto
          60 95 rlineto
          324 19 184 201 242 vvcurveto
          192 -118 115 -246 75 vhcurveto
          endchar
        </CharString>
        <CharString name="Scircumflex">
          70 88 424 rmoveto
          -102 callsubr
          668 1439 -94 callsubr
        </CharString>
        <CharString name="Scommaaccent">
          70 88 424 rmoveto
          -102 callsubr
          158 -900 -41 callsubr
        </CharString>
        <CharString name="Sdotaccent">
          70 88 424 rmoveto
          -102 callsubr
          554 1184 -101 callgsubr
        </CharString>
        <CharString name="Sdotbelow">
          70 88 424 rmoveto
          -102 callsubr
          246 -874 -101 callgsubr
        </CharString>
        <CharString name="Sdotbelowdotaccent">
          70 88 424 rmoveto
          -102 callsubr
          246 -874 -102 callgsubr
          308 2058 -101 callgsubr
        </CharString>
        <CharString name="Shacyrillic">
          740 65 hmoveto
          1677 -56 callsubr
          -260 hlineto
          -261 -1220 rlineto
          -448 87 callsubr
          -262 -1220 rlineto
          -448 hlineto
          262 66 callsubr
          -261 hlineto
          endchar
        </CharString>
        <CharString name="Shchacyrillic">
          812 1861 -285 98 callsubr
          -260 hlineto
          -261 -1220 rlineto
          -448 87 callsubr
          -262 -1220 rlineto
          -448 hlineto
          262 66 callsubr
          -261 -97 callsubr
          1623 hlineto
          -61 -285 rlineto
          endchar
        </CharString>
        <CharString name="Sigmagreek">
          68 394 228 rmoveto
          437 504 5 18 -208 465 1 5 rlineto
          727 hlineto
          46 223 rlineto
          -1049 hlineto
          -38 -186 241 -517 -502 -573 -34 -167 rlineto
          1096 hlineto
          46 223 rlineto
          -769 hlineto
          endchar
        </CharString>
        <CharString name="Softsigncyrillic">
          61 706 734 rmoveto
          164 108 -74 -152 -173 -143 -121 -192 hvcurveto
          -273 hlineto
          113 520 rlineto
          -418 -734 rmoveto
          589 hlineto
          338 249 210 317 265 -191 158 -290 89 callgsubr
          106 493 rlineto
          -261 hlineto
          endchar
        </CharString>
        <CharString name="T">
          34 682 54 callgsubr
        </CharString>
        <CharString name="Taugreek">
          34 682 54 callgsubr
        </CharString>
        <CharString name="Tbar">
          34 1385 1220 rmoveto
          46 223 rlineto
          -1147 hlineto
          -46 -223 rlineto
          443 hlineto
          -82 -386 rlineto
          -311 hlineto
          -46 -222 rlineto
          309 hlineto
          -130 -612 rlineto
          261 hlineto
          130 612 rlineto
          347 hlineto
          46 222 rlineto
          -345 hlineto
          82 386 rlineto
          endchar
        </CharString>
        <CharString name="Tcaron">
          34 682 hmoveto
          -59 callgsubr
          370 1552 -86 callgsubr
        </CharString>
        <CharString name="Tcedilla">
          34 284 1443 rmoveto
          -46 -223 rlineto
          443 hlineto
          -260 -1220 rlineto
          104 hlineto
          -82 -133 -21 -91 rlineto
          59 hlineto
          100 41 -17 -39 -39 -43 -22 -78 -46 -46 7 13 -38 hvcurveto
          -27 -130 rlineto
          -14 38 67 -10 60 hhcurveto
          161 111 86 125 91 -63 53 -110 2 hvcurveto
          74 118 260 1220 rlineto
          443 hlineto
          46 223 rlineto
          endchar
        </CharString>
        <CharString name="Tcircumflexbelow">
          34 682 hmoveto
          -59 callgsubr
          186 -165 -94 callsubr
        </CharString>
        <CharString name="Tcommaaccent">
          34 682 hmoveto
          -59 callgsubr
          -22 -476 -41 callsubr
        </CharString>
        <CharString name="Tdotaccent">
          34 682 hmoveto
          -59 callgsubr
          502 1608 -101 callgsubr
        </CharString>
        <CharString name="Tdotbelow">
          34 682 hmoveto
          -59 callgsubr
          66 -450 -101 callgsubr
        </CharString>
        <CharString name="Tecyrillic">
          44 687 54 callgsubr
        </CharString>
        <CharString name="Thetagreek">
          366 1120 609 rmoveto
          44 216 rlineto
          -546 hlineto
          -45 -216 rlineto
          216 -633 rmoveto
          461 330 375 486 383 -249 246 -380 -461 -329 -374 -486 -383 249 -247 379 hvcurveto
          531 854 rmoveto
          -350 -217 -281 -304 -232 -146 160 253 351 216 282 304 232 147 -161 -254 vhcurveto
          endchar
        </CharString>
        <CharString name="Thorn">
          58 69 hmoveto
          257 hlineto
          67 311 rlineto
          323 hlineto
          339 232 214 291 224 -173 159 -241 hvcurveto
          -293 hlineto
          53 244 rlineto
          -257 hlineto
          159 -461 rmoveto
          255 hlineto
          155 80 -72 -120 -164 -124 -100 -206 hvcurveto
          -258 hlineto
          endchar
        </CharString>
        <CharString name="Tlinebelow">
          34 682 hmoveto
          -59 callgsubr
          419 -239 -79 callsubr
        </CharString>
        <CharString name="Tsecyrillic">
          362 1388 -285 98 callsubr
          -262 81 callgsubr
          -677 65 callgsubr
        </CharString>
        <CharString name="Tshecyrillic">
          507 1136 678 rmoveto
          179 76 -112 -185 -40 hvcurveto
          -81 -381 rlineto
          260 hlineto
          81 377 rlineto
          325 69 -155 205 -311 hhcurveto
          -145 -120 -59 -69 -84 hvcurveto
          -13 hlineto
          95 441 rlineto
          437 hlineto
          46 223 rlineto
          -1134 hlineto
          -46 -223 rlineto
          436 hlineto
          -260 -1220 108 callsubr
          107 501 rlineto
          98 72 130 79 140 hhcurveto
          endchar
        </CharString>
        <CharString name="U">
          -104 callsubr
          endchar
        </CharString>
        <CharString name="Uacute">
          -104 callsubr
          375 1582 -82 callgsubr
        </CharString>
        <CharString name="Ubreve">
          -104 callsubr
          -14 1880 -75 callsubr
          endchar
        </CharString>
        <CharString name="Ucaron">
          -104 callsubr
          173 1576 -86 callgsubr
        </CharString>
        <CharString name="Ucircumflex">
          -104 callsubr
          419 1887 -94 callsubr
        </CharString>
        <CharString name="Ucircumflexbelow">
          -104 callsubr
          23 -141 -94 callsubr
        </CharString>
        <CharString name="Ucyrillic">
          -72 callsubr
          endchar
        </CharString>
        <CharString name="Udblgrave">
          -104 callsubr
          -5 1582 -40 callgsubr
          569 -300 rmoveto
          189 hlineto
          -161 300 rlineto
          -230 hlineto
          endchar
        </CharString>
        <CharString name="Udieresis">
          -104 callsubr
          104 1621 -105 callgsubr
        </CharString>
        <CharString name="Udieresisacute">
          -104 callsubr
          214 1887 8 callsubr
          -229 hlineto
          -338 -546 -35 callsubr
        </CharString>
        <CharString name="Udieresisbelow">
          -104 callsubr
          -289 -406 6 callsubr
        </CharString>
        <CharString name="Udieresiscaron">
          -104 callsubr
          233 1879 11 callsubr
        </CharString>
        <CharString name="Udieresisgrave">
          -104 callsubr
          437 1887 rmoveto
          -128 33 callsubr
          -155 -307 -35 callsubr
        </CharString>
        <CharString name="Udieresismacron">
          -104 callsubr
          99 1815 rmoveto
          -41 callgsubr
          609 267 rmoveto
          58 callgsubr
          670 hlineto
          -197 -129 rmoveto
          36 callgsubr
        </CharString>
        <CharString name="Udotbelow">
          -104 callsubr
          -97 -426 -101 callgsubr
        </CharString>
        <CharString name="Ugrave">
          -104 callsubr
          163 1582 -40 callgsubr
          endchar
        </CharString>
        <CharString name="Uhookabove">
          -104 callsubr
          120 1802 -64 callgsubr
        </CharString>
        <CharString name="Uhorn">
          -85 callgsubr
          endchar
        </CharString>
        <CharString name="Uhornacute">
          -85 callgsubr
          383 1582 -82 callgsubr
        </CharString>
        <CharString name="Uhorndotbelow">
          -85 callgsubr
          -111 -426 -101 callgsubr
        </CharString>
        <CharString name="Uhorngrave">
          -85 callgsubr
          171 1582 -40 callgsubr
          endchar
        </CharString>
        <CharString name="Uhornhookabove">
          -85 callgsubr
          128 1802 -64 callgsubr
        </CharString>
        <CharString name="Uhorntilde">
          -85 callgsubr
          429 1570 -103 callgsubr
          endchar
        </CharString>
        <CharString name="Uhungarumlaut">
          -104 callsubr
          565 1582 -1 callsubr
        </CharString>
        <CharString name="Uinvertedbreve">
          -104 callsubr
          607 1564 -60 callsubr
        </CharString>
        <CharString name="Umacron">
          -104 callsubr
          646 1787 -79 callsubr
        </CharString>
        <CharString name="Umacrondieresis">
          -104 callsubr
          610 93 callgsubr
          222 271 rmoveto
          68 53 54 67 68 -53 54 -68 -69 21 callgsubr
          69 hvcurveto
          383 hmoveto
          69 53 54 67 68 -53 54 -69 -3 callgsubr
          hvcurveto
          endchar
        </CharString>
        <CharString name="Uogonek">
          246 923 -428 rmoveto
          30 145 rlineto
          -8 -17 -27 -4 -29 hhcurveto
          -63 -36 27 47 81 95 95 164 90 hvcurveto
          159 86 111 136 41 194 209 982 rcurveline
          -261 62 callgsubr
          -43 -138 106 callgsubr
          -193 -105 97 155 -5 hvcurveto
          -1 35 4 38 9 40 183 869 rcurveline
          62 callsubr
          -43 -5 -44 1 -40 rlinecurve
          -264 1 197 -198 344 hhcurveto
          22 27 1 2 9 hvcurveto
          -5 vlineto
          -126 -74 -64 -88 -92 vvcurveto
          -103 87 -67 124 56 51 9 13 25 vhcurveto
          endchar
        </CharString>
        <CharString name="Upsilondieresisgreek">
          104 718 hmoveto
          -84 callgsubr
          296 1597 -105 callgsubr
        </CharString>
        <CharString name="Upsilongreek">
          104 718 hmoveto
          -84 callgsubr
          endchar
        </CharString>
        <CharString name="Upsilontonosgreek">
          599 272 3 callsubr
          797 -1443 47 callgsubr
        </CharString>
        <CharString name="Uring">
          -104 callsubr
          310 1586 -90 callgsubr
        </CharString>
        <CharString name="Ushortcyrillic">
          -72 callsubr
          352 1865 -73 callgsubr
        </CharString>
        <CharString name="Utilde">
          -104 callsubr
          421 1570 -103 callgsubr
          endchar
        </CharString>
        <CharString name="Utildeacute">
          -104 callsubr
          234 1900 rmoveto
          201 hlineto
          254 226 rlineto
          -228 hlineto
          -51 -563 -50 callgsubr
          endchar
        </CharString>
        <CharString name="Utildebelow">
          -104 callsubr
          32 -426 -103 callgsubr
          endchar
        </CharString>
        <CharString name="V">
          135 14 callgsubr
          endchar
        </CharString>
        <CharString name="Vdotbelow">
          134 14 callgsubr
          82 -450 -101 callgsubr
        </CharString>
        <CharString name="Vecyrillic">
          131 726 -83 callsubr
          endchar
        </CharString>
        <CharString name="Vtilde">
          134 14 callgsubr
          625 1546 -103 callgsubr
          endchar
        </CharString>
        <CharString name="W">
          727 1113 -72 callgsubr
          endchar
        </CharString>
        <CharString name="Wacute">
          727 1113 -72 callgsubr
          725 1558 -82 callgsubr
        </CharString>
        <CharString name="Wcircumflex">
          727 1113 -72 callgsubr
          769 1863 -94 callsubr
        </CharString>
        <CharString name="Wdieresis">
          727 1113 -72 callgsubr
          454 1597 -105 callgsubr
        </CharString>
        <CharString name="Wdotaccent">
          727 1113 -72 callgsubr
          655 1608 -101 callgsubr
        </CharString>
        <CharString name="Wdotbelow">
          727 1113 -72 callgsubr
          228 -450 -101 callgsubr
        </CharString>
        <CharString name="Wgrave">
          727 1113 -72 callgsubr
          513 1558 -40 callgsubr
          endchar
        </CharString>
        <CharString name="X">
          152 -34 31 callgsubr
        </CharString>
        <CharString name="Xacyrillic">
          162 -29 31 callgsubr
        </CharString>
        <CharString name="Xdieresis">
          152 -34 hmoveto
          -54 callgsubr
          167 865 -105 callgsubr
        </CharString>
        <CharString name="Xdotaccent">
          152 -34 hmoveto
          -54 callgsubr
          368 876 -101 callgsubr
        </CharString>
        <CharString name="Xigreek">
          58 331 79 callgsubr
          -47 -230 rlineto
          1077 hlineto
          47 230 rlineto
          -261 -821 rmoveto
          46 217 rlineto
          -903 hlineto
          -46 -217 rlineto
          -172 -392 rmoveto
          -47 -230 rlineto
          1077 hlineto
          47 230 rlineto
          endchar
        </CharString>
        <CharString name="Y">
          105 718 hmoveto
          -84 callgsubr
          endchar
        </CharString>
        <CharString name="Yacute">
          104 718 hmoveto
          -84 callgsubr
          567 1558 -82 callgsubr
        </CharString>
        <CharString name="Ycircumflex">
          104 718 hmoveto
          -84 callgsubr
          611 1863 -94 callsubr
        </CharString>
        <CharString name="Ydieresis">
          104 718 hmoveto
          -84 callgsubr
          296 1597 -105 callgsubr
        </CharString>
        <CharString name="Ydotaccent">
          104 718 hmoveto
          -84 callgsubr
          496 1608 -101 callgsubr
        </CharString>
        <CharString name="Ydotbelow">
          104 718 hmoveto
          -84 callgsubr
          61 -450 -101 callgsubr
        </CharString>
        <CharString name="Yericyrillic">
          -65 callgsubr
          endchar
        </CharString>
        <CharString name="Ygrave">
          104 718 hmoveto
          -84 callgsubr
          355 1558 -40 callgsubr
          endchar
        </CharString>
        <CharString name="Yhookabove">
          104 718 hmoveto
          -84 callgsubr
          312 1778 -64 callgsubr
        </CharString>
        <CharString name="Yicyrillic">
          -677 326 hmoveto
          -90 callsubr
          300 1597 -105 callgsubr
        </CharString>
        <CharString name="Yicyrillic.1">
          -226 976 1597 rmoveto
          68 54 54 67 67 -54 54 -68 -68 -54 -54 -67 -67 54 -54 68 hvcurveto
          -387 0 rmoveto
          69 54 54 67 67 -54 54 -69 -68 -54 -54 -67 -67 54 -54 68 hvcurveto
          496 -366 rmoveto
          45 212 rlineto
          -272 hlineto
          -261 hlineto
          -271 hlineto
          -44 -212 rlineto
          270 hlineto
          -217 -1019 rlineto
          -271 hlineto
          -45 -212 rlineto
          271 hlineto
          261 hlineto
          272 hlineto
          44 212 rlineto
          -271 hlineto
          217 1019 rlineto
          endchar
        </CharString>
        <CharString name="Ymacron">
          104 718 hmoveto
          -84 callgsubr
          838 1763 -79 callsubr
        </CharString>
        <CharString name="Ytilde">
          104 718 hmoveto
          -84 callgsubr
          613 1546 -103 callgsubr
          endchar
        </CharString>
        <CharString name="Z">
          62 20 hmoveto
          -61 callgsubr
          endchar
        </CharString>
        <CharString name="Zacute">
          62 20 hmoveto
          -61 callgsubr
          940 1382 -82 callgsubr
        </CharString>
        <CharString name="Zcaron">
          62 20 hmoveto
          -61 callgsubr
          738 1376 -86 callgsubr
        </CharString>
        <CharString name="Zcircumflex">
          62 20 hmoveto
          -61 callgsubr
          984 1687 -94 callsubr
        </CharString>
        <CharString name="Zdotaccent">
          62 20 hmoveto
          -61 callgsubr
          870 1432 -101 callgsubr
        </CharString>
        <CharString name="Zdotbelow">
          62 20 hmoveto
          -61 callgsubr
          474 -626 -101 callgsubr
        </CharString>
        <CharString name="Zecyrillic">
          33 471 637 -79 callgsubr
          endchar
        </CharString>
        <CharString name="Zetagreek">
          62 20 hmoveto
          -61 callgsubr
          endchar
        </CharString>
        <CharString name="Zhecyrillic">
          843 972 -45 callsubr
          endchar
        </CharString>
        <CharString name="Zlinebelow">
          62 20 hmoveto
          -61 callgsubr
          827 -415 -79 callsubr
        </CharString>
        <CharString name="a">
          -107 callgsubr
          endchar
        </CharString>
        <CharString name="a.1">
          -8 572 -106 callgsubr
          endchar
        </CharString>
        <CharString name="aacute">
          -107 callgsubr
          434 1248 -77 callsubr
          endchar
        </CharString>
        <CharString name="aacute.1">
          -8 572 -106 callgsubr
          111 1231 -77 callsubr
          endchar
        </CharString>
        <CharString name="abreve">
          -107 callgsubr
          38 1554 -67 callgsubr
        </CharString>
        <CharString name="abreve.1">
          -8 572 -106 callgsubr
          -285 -5 callsubr
        </CharString>
        <CharString name="abreveacute">
          -107 callgsubr
          275 1582 8 callgsubr
          177 -326 -84 callsubr
          endchar
        </CharString>
        <CharString name="abreveacute.1">
          -8 572 -106 callgsubr
          -48 1565 8 callgsubr
          177 -326 -84 callsubr
          endchar
        </CharString>
        <CharString name="abrevedotbelow">
          -107 callgsubr
          38 1554 -75 callgsubr
          -143 -1987 -101 callgsubr
        </CharString>
        <CharString name="abrevedotbelow.1">
          -8 572 -106 callgsubr
          -285 1537 -75 callgsubr
          -195 -1987 -101 callgsubr
        </CharString>
        <CharString name="abrevegrave">
          -107 callgsubr
          484 1580 rmoveto
          -134 293 rlineto
          -207 hlineto
          170 -293 rlineto
          408 -33 -84 callsubr
          endchar
        </CharString>
        <CharString name="abrevegrave.1">
          -8 572 -106 callgsubr
          161 1563 rmoveto
          -134 293 rlineto
          -207 hlineto
          170 -293 rlineto
          408 -33 -84 callsubr
          endchar
        </CharString>
        <CharString name="abrevehookabove">
          -107 callgsubr
          230 1773 rmoveto
          11 33 32 5 34 hhcurveto
          47 31 -23 -35 -41 -46 -46 -60 -22 hvcurveto
          62 -92 rlineto
          109 36 88 104 96 vvcurveto
          89 -70 56 -112 -40 -50 -9 -13 -32 vhcurveto
          465 -342 -84 callsubr
          endchar
        </CharString>
        <CharString name="abrevehookabove.1">
          -8 572 -106 callgsubr
          -93 1756 rmoveto
          11 33 32 5 34 hhcurveto
          47 31 -23 -35 -41 -46 -46 -60 -22 hvcurveto
          62 -92 rlineto
          109 36 88 104 96 vvcurveto
          89 -70 56 -112 -40 -50 -9 -13 -32 vhcurveto
          465 -342 -84 callsubr
          endchar
        </CharString>
        <CharString name="abrevetilde">
          -107 callgsubr
          721 1547 -84 callsubr
          -175 63 -63 callsubr
        </CharString>
        <CharString name="abrevetilde.1">
          -8 572 -106 callgsubr
          398 1530 -84 callsubr
          -175 63 -63 callsubr
        </CharString>
        <CharString name="acaron">
          -107 callgsubr
          420 1242 -81 callsubr
        </CharString>
        <CharString name="acaron.1">
          -8 572 -106 callgsubr
          97 1225 -81 callsubr
        </CharString>
        <CharString name="acircumflex">
          -107 callgsubr
          480 1554 -61 callsubr
        </CharString>
        <CharString name="acircumflex.1">
          -8 572 -106 callgsubr
          157 0 callgsubr
        </CharString>
        <CharString name="acircumflexacute">
          -107 callgsubr
          458 1534 -66 callgsubr
          -119 347 rmoveto
          193 hlineto
          295 291 rlineto
          -220 hlineto
          endchar
        </CharString>
        <CharString name="acircumflexacute.1">
          -8 572 -106 callgsubr
          135 1517 -66 callgsubr
          -119 347 rmoveto
          193 hlineto
          295 291 rlineto
          -220 hlineto
          endchar
        </CharString>
        <CharString name="acircumflexdotbelow">
          -107 callgsubr
          480 1554 -78 callsubr
          -626 -1675 -101 callgsubr
        </CharString>
        <CharString name="acircumflexdotbelow.1">
          -8 572 -106 callgsubr
          157 1537 -78 callsubr
          -678 -1675 -101 callgsubr
        </CharString>
        <CharString name="acircumflexgrave">
          -107 callgsubr
          767 1580 -10 callsubr
          -137 -46 -66 callgsubr
          endchar
        </CharString>
        <CharString name="acircumflexgrave.1">
          -8 572 -106 callgsubr
          444 1563 -10 callsubr
          -137 -46 -66 callgsubr
          endchar
        </CharString>
        <CharString name="acircumflexhookabove">
          -107 callgsubr
          479 1762 -51 callsubr
        </CharString>
        <CharString name="acircumflexhookabove.1">
          -8 572 -106 callgsubr
          156 1745 -51 callsubr
        </CharString>
        <CharString name="acircumflextilde">
          -107 callgsubr
          457 1527 rmoveto
          -193 hlineto
          -329 -292 rlineto
          214 hlineto
          195 173 rlineto
          6 hlineto
          121 -173 rlineto
          190 hlineto
          -130 375 -63 callsubr
        </CharString>
        <CharString name="acircumflextilde.1">
          -8 572 -106 callgsubr
          134 1510 rmoveto
          -193 hlineto
          -329 -292 rlineto
          214 hlineto
          195 173 rlineto
          6 hlineto
          121 -173 rlineto
          190 hlineto
          -130 375 -63 callsubr
        </CharString>
        <CharString name="acute">
          -128 709 1231 -77 callsubr
          endchar
        </CharString>
        <CharString name="acutecmb">
          313 1231 -77 callsubr
          endchar
        </CharString>
        <CharString name="acutecmb.short">
          370 1558 -82 callgsubr
        </CharString>
        <CharString name="acutedotaccentcmb">
          429 1231 -77 callsubr
          -199 -14 -71 callsubr
        </CharString>
        <CharString name="acutedotaccentcmb.short">
          516 1560 rmoveto
          328 300 97 callgsubr
          -287 -300 rlineto
          -192 5 -101 callgsubr
        </CharString>
        <CharString name="acyrillic">
          -107 callgsubr
          endchar
        </CharString>
        <CharString name="acyrillic.1">
          0 578 -106 callgsubr
          endchar
        </CharString>
        <CharString name="adblgrave">
          -107 callgsubr
          249 1249 -43 callgsubr
        </CharString>
        <CharString name="adblgrave.1">
          -8 572 -106 callgsubr
          -74 1232 -43 callgsubr
        </CharString>
        <CharString name="adieresis">
          -107 callgsubr
          147 1246 -105 callgsubr
        </CharString>
        <CharString name="adieresis.1">
          -8 572 -106 callgsubr
          -176 1229 -105 callgsubr
        </CharString>
        <CharString name="adieresismacron">
          -107 callgsubr
          142 1233 -39 callsubr
        </CharString>
        <CharString name="adieresismacron.1">
          -8 572 -106 callgsubr
          -181 1216 -39 callsubr
        </CharString>
        <CharString name="adotaccent">
          -107 callgsubr
          339 1245 -71 callsubr
        </CharString>
        <CharString name="adotaccent.1">
          -8 572 -106 callgsubr
          16 1228 -71 callsubr
        </CharString>
        <CharString name="adotbelow">
          -107 callgsubr
          54 -433 -101 callgsubr
        </CharString>
        <CharString name="adotbelow.1">
          -8 572 -106 callgsubr
          -321 -450 -101 callgsubr
        </CharString>
        <CharString name="adotmacron">
          -107 callgsubr
          337 1221 -6 callsubr
        </CharString>
        <CharString name="adotmacron.1">
          -8 572 -106 callgsubr
          14 1204 -6 callsubr
        </CharString>
        <CharString name="ae">
          575 1228 -88 callgsubr
          endchar
        </CharString>
        <CharString name="aeacute">
          574 1228 -88 callgsubr
          701 1061 -77 callsubr
          endchar
        </CharString>
        <CharString name="aemacron">
          574 1228 -88 callgsubr
          934 1248 -76 callsubr
        </CharString>
        <CharString name="agrave">
          -107 callgsubr
          410 1248 -37 callgsubr
        </CharString>
        <CharString name="agrave.1">
          -8 572 -106 callgsubr
          87 1231 -37 callgsubr
        </CharString>
        <CharString name="ahookabove">
          -107 callgsubr
          195 1478 -65 callsubr
        </CharString>
        <CharString name="ahookabove.1">
          -8 572 -106 callgsubr
          -128 1461 -65 callsubr
        </CharString>
        <CharString name="ainvertedbreve">
          -107 callgsubr
          652 1228 -57 callgsubr
        </CharString>
        <CharString name="ainvertedbreve.1">
          -8 572 -106 callgsubr
          329 1211 -57 callgsubr
        </CharString>
        <CharString name="alphagreek">
          -20 callgsubr
          endchar
        </CharString>
        <CharString name="alphatonosgreek">
          -20 callgsubr
          67 1033 9 callgsubr
        </CharString>
        <CharString name="amacron">
          -107 callgsubr
          667 1435 -76 callsubr
        </CharString>
        <CharString name="amacron.1">
          -8 572 -106 callgsubr
          344 1418 -76 callsubr
        </CharString>
        <CharString name="ampersand">
          213 602 1099 rmoveto
          105 87 85 107 94 67 -55 -86 -98 -74 -97 -186 -60 vhcurveto
          -67 90 -28 58 58 vvcurveto
          -18 -933 rmoveto
          -173 -109 96 129 110 82 93 156 57 hvcurveto
          2 1 44 15 4 2 284 -423 rcurveline
          -58 -88 -110 -22 -92 hhcurveto
          449 -166 rmoveto
          270 hlineto
          -148 223 122 130 82 165 17 198 rlinecurve
          4 46 rlineto
          -217 hlineto
          -3 -40 -10 -131 -43 -106 -69 -85 rlinecurve
          -244 353 rlineto
          266 97 118 151 169 vvcurveto
          172 -162 128 -218 -239 -180 -157 -198 -86 35 -88 81 -117 vhcurveto
          -68 -28 rlineto
          -243 -95 -121 -145 -186 vvcurveto
          -227 220 -170 283 152 145 39 71 115 vhcurveto
          endchar
        </CharString>
        <CharString name="anoteleia">
          -654 344 515 18 callsubr
          endchar
        </CharString>
        <CharString name="aogonek">
          -137 472 179 rmoveto
          -103 -69 51 78 89 81 58 132 5 hvcurveto
          251 12 -23 -101 rlineto
          -114 -25 -109 -78 -135 hhcurveto
          319 -595 rmoveto
          29 144 rlineto
          -7 -18 -26 -4 -29 hhcurveto
          -58 -40 27 46 72 104 86 134 45 hvcurveto
          17 5 146 687 rlineto
          5 22 3 31 35 vvcurveto
          181 -167 124 -245 -247 -184 -130 -203 -35 vhcurveto
          238 hlineto
          85 20 78 49 111 hhcurveto
          117 72 -51 -83 -19 -1 -10 -3 -15 hvcurveto
          -14 -64 -286 -12 rlineto
          -288 -12 -165 -128 -210 vvcurveto
          -163 139 -123 184 135 109 51 88 66 vhcurveto
          4 hlineto
          -27 -126 rlineto
          -141 -78 -79 -87 -107 76 callgsubr
          58 51 10 12 23 vhcurveto
          endchar
        </CharString>
        <CharString name="aogonek.1">
          -8 572 188 rmoveto
          -137 -86 103 161 237 133 182 180 140 93 -105 -151 -240 -138 -187 -185 hvcurveto
          338 -604 rmoveto
          30 144 rlineto
          -7 -19 -26 -4 -28 hhcurveto
          -59 -39 27 46 69 97 87 140 47 hvcurveto
          18 5 226 1064 rlineto
          -238 hlineto
          -43 -206 rlineto
          -10 hlineto
          133 -37 -127 91 -165 hhcurveto
          -303 -227 -284 -370 -269 148 -174 235 134 125 73 111 70 hvcurveto
          8 hlineto
          -36 -168 rlineto
          -138 -77 -78 -88 -104 76 callgsubr
          59 50 10 12 23 vhcurveto
          endchar
        </CharString>
        <CharString name="approxequal">
          87 940 625 -11 callgsubr
        </CharString>
        <CharString name="approxequal.uc">
          87 966 760 -11 callgsubr
        </CharString>
        <CharString name="aring">
          -107 callgsubr
          344 1198 -90 callgsubr
        </CharString>
        <CharString name="aring.1">
          -8 572 -106 callgsubr
          21 1181 -90 callgsubr
        </CharString>
        <CharString name="aringacute">
          -107 callgsubr
          314 1689 -27 callgsubr
        </CharString>
        <CharString name="aringacute.1">
          -8 572 -106 callgsubr
          -9 1672 -27 callgsubr
        </CharString>
        <CharString name="aringbelow">
          -107 callgsubr
          54 -499 -90 callgsubr
        </CharString>
        <CharString name="aringbelow.1">
          -8 572 -106 callgsubr
          -321 -516 -90 callgsubr
        </CharString>
        <CharString name="asciicircum">
          -249 609 1222 rmoveto
          16 hlineto
          105 -409 rlineto
          220 hlineto
          -177 616 rlineto
          -234 hlineto
          -441 -616 rlineto
          226 hlineto
          endchar
        </CharString>
        <CharString name="asciitilde">
          88 903 433 rmoveto
          171 130 132 253 35 hvcurveto
          -208 hlineto
          -110 -21 -46 -53 -67 -113 -50 212 -205 hhcurveto
          -167 -136 -131 -253 -35 hvcurveto
          208 hlineto
          110 21 44 51 68 116 49 -211 206 hhcurveto
          endchar
        </CharString>
        <CharString name="asterisk">
          -225 916 824 rmoveto
          97 131 -237 149 285 97 -58 156 -259 -132 67 277 -164 17 -32 -291 -211 187 -98 -133 230 -147 -278 -96 58 -153 263 132 -69 -279 163 -17 31 287 rlineto
          endchar
        </CharString>
        <CharString name="asterisk.uc">
          87 1113 276 rmoveto
          133 174 -365 234 437 149 -73 203 -410 -197 102 436 -212 23 -51 -453 -335 281 -133 -173 362 -233 -429 -144 74 -206 413 202 -104 -438 212 -23 51 438 rlineto
          endchar
        </CharString>
        <CharString name="at">
          605 1052 1442 -33 callgsubr
        </CharString>
        <CharString name="at.uc">
          605 1077 1563 -33 callgsubr
        </CharString>
        <CharString name="atilde">
          -107 callgsubr
          464 1247 -103 callgsubr
          endchar
        </CharString>
        <CharString name="atilde.1">
          -8 572 -106 callgsubr
          141 1231 -103 callgsubr
          endchar
        </CharString>
        <CharString name="austral">
          87 951 hmoveto
          258 hlineto
          -46 369 rlineto
          90 hlineto
          32 151 rlineto
          -138 hlineto
          -21 157 rlineto
          192 hlineto
          33 151 rlineto
          -242 hlineto
          -71 615 rlineto
          -288 hlineto
          -337 -615 rlineto
          -262 hlineto
          -32 -151 rlineto
          212 hlineto
          -88 -157 rlineto
          -157 hlineto
          -32 -151 rlineto
          107 hlineto
          -206 -369 rlineto
          265 hlineto
          196 369 rlineto
          501 hlineto
          -87 791 rmoveto
          17 hlineto
          31 -333 rlineto
          -225 hlineto
          252 -307 rmoveto
          -412 hlineto
          84 158 rlineto
          313 hlineto
          endchar
        </CharString>
        <CharString name="b">
          -52 callgsubr
          endchar
        </CharString>
        <CharString name="backslash">
          -499 321 -310 100 callsubr
        </CharString>
        <CharString name="backslash.uc">
          -499 354 -154 100 callsubr
        </CharString>
        <CharString name="baht">
          87 729 653 rmoveto
          139 -9 70 -66 -117 vvcurveto
          -144 -127 -107 -176 -2 vhcurveto
          -290 0 rmoveto
          96 446 rlineto
          150 hlineto
          -95 -446 rlineto
          71 1034 rmoveto
          149 hlineto
          -85 -402 rlineto
          -151 hlineto
          373 397 rmoveto
          105 -17 51 -55 -92 vvcurveto
          -121 -90 -89 -149 -19 vhcurveto
          174 -83 rmoveto
          190 31 132 151 186 vvcurveto
          182 -145 122 -224 9 vhcurveto
          32 151 rlineto
          -138 hlineto
          -32 -150 rlineto
          -406 hlineto
          -307 -1443 rlineto
          406 hlineto
          -30 -139 rlineto
          139 hlineto
          30 139 rlineto
          68 hlineto
          315 223 191 266 149 -104 107 -151 30 hvcurveto
          endchar
        </CharString>
        <CharString name="bar">
          -499 331 -310 83 callsubr
        </CharString>
        <CharString name="bar.uc">
          -499 364 -154 83 callsubr
        </CharString>
        <CharString name="bdotaccent">
          -52 callgsubr
          -94 1416 -101 callgsubr
        </CharString>
        <CharString name="bdotbelow">
          -52 callgsubr
          -169 -640 -101 callgsubr
        </CharString>
        <CharString name="becyrillic">
          -37 746 1043 rmoveto
          -149 -110 -60 -128 -93 hvcurveto
          -16 hlineto
          78 243 125 107 219 11 rrcurveto
          16 122 7 1 hhcurveto
          144 8 85 15 49 24 46 212 rcurveline
          -50 -21 -108 -20 -136 -8 rrcurveto
          -1 -123 -7 -12 hhcurveto
          -348 -21 -201 -166 -114 -360 -35 -110 -19 -121 -2 -121 rrcurveto
          -336 -4 180 -211 289 hhcurveto
          339 221 247 375 4 hvcurveto
          264 3 -157 177 -243 hhcurveto
          -152 -858 rmoveto
          -144 -94 112 160 1 hvcurveto
          228 2 129 160 185 hhcurveto
          142 81 -106 -175 -1 hvcurveto
          -208 -2 -134 -171 -165 hhcurveto
          endchar
        </CharString>
        <CharString name="betagreek">
          -6 240 992 rmoveto
          -286 -1342 123 callgsubr
          119 560 rlineto
          6 hlineto
          -139 48 138 -88 165 hhcurveto
          323 177 218 254 161 -76 116 -175 45 hvcurveto
          1 4 rlineto
          166 54 84 125 162 vvcurveto
          208 -166 135 -249 -293 -157 -148 -325 -68 vhcurveto
          316 -321 rmoveto
          103 hlineto
          171 98 -80 -142 -150 -131 -108 -150 -162 -116 94 145 20 5 39 9 41 hvcurveto
          102 475 rlineto
          179 38 99 77 119 hhcurveto
          128 73 -68 -103 -139 -101 -85 -154 hvcurveto
          -90 hlineto
          endchar
        </CharString>
        <CharString name="bitcoin">
          87 384 229 rmoveto
          93 428 rlineto
          226 hlineto
          154 79 -65 -120 -140 -125 -103 -172 hvcurveto
          -41 993 rmoveto
          187 hlineto
          146 73 -56 -107 -131 -111 -92 -177 hvcurveto
          -201 hlineto
          427 -77 rmoveto
          183 30 126 145 179 vvcurveto
          151 -105 108 -169 32 vhcurveto
          43 205 rlineto
          -135 hlineto
          -41 -195 rlineto
          -143 hlineto
          42 195 rlineto
          -136 hlineto
          -41 -195 rlineto
          -170 hlineto
          -295 -1385 rlineto
          170 hlineto
          -42 -198 rlineto
          136 hlineto
          42 198 rlineto
          142 hlineto
          -42 -198 rlineto
          135 hlineto
          42 198 rlineto
          294 7 206 181 251 vvcurveto
          143 -100 102 -145 29 vhcurveto
          endchar
        </CharString>
        <CharString name="blinebelow">
          -52 callgsubr
          184 -429 -79 callsubr
        </CharString>
        <CharString name="braceleft">
          -499 213 235 -19 callsubr
        </CharString>
        <CharString name="braceleft.uc">
          -499 245 390 -19 callsubr
        </CharString>
        <CharString name="braceright">
          -499 597 898 -19 callgsubr
        </CharString>
        <CharString name="braceright.uc">
          -499 630 1053 -19 callgsubr
        </CharString>
        <CharString name="bracketleft">
          -499 420 79 callgsubr
          -374 -1753 rlineto
          508 hlineto
          40 191 rlineto
          -269 hlineto
          294 1371 rlineto
          269 hlineto
          40 191 rlineto
          endchar
        </CharString>
        <CharString name="bracketleft.uc">
          -499 453 1598 rmoveto
          -374 -1753 rlineto
          508 hlineto
          40 191 rlineto
          -269 hlineto
          294 1371 rlineto
          269 hlineto
          40 191 rlineto
          endchar
        </CharString>
        <CharString name="bracketright">
          -499 390 -310 56 callsubr
        </CharString>
        <CharString name="bracketright.uc">
          -499 423 -155 56 callsubr
        </CharString>
        <CharString name="breve">
          -127 452 -5 callsubr
        </CharString>
        <CharString name="breveacutecmb">
          155 1572 8 callgsubr
          177 -326 -84 callsubr
          endchar
        </CharString>
        <CharString name="breveacutecmb.short">
          205 1863 8 callsubr
          -229 hlineto
          -173 -561 -42 callsubr
        </CharString>
        <CharString name="brevebelowcmb">
          -446 -151 -2 callsubr
        </CharString>
        <CharString name="brevecmb">
          -83 -5 callsubr
        </CharString>
        <CharString name="brevecmb.short">
          -19 1856 -75 callsubr
          endchar
        </CharString>
        <CharString name="brevecyrillic">
          -198 409 1553 -85 callsubr
        </CharString>
        <CharString name="brevecyrillic.short">
          -37 1853 -73 callgsubr
        </CharString>
        <CharString name="brevegravecmb">
          364 1570 rmoveto
          -134 293 rlineto
          -207 hlineto
          170 -293 rlineto
          408 -33 -84 callsubr
          endchar
        </CharString>
        <CharString name="brevegravecmb.short">
          425 1863 19 callgsubr
        </CharString>
        <CharString name="brevehookabovecmb">
          110 1763 rmoveto
          11 33 32 5 34 hhcurveto
          47 31 -23 -35 -41 -46 -46 -60 -22 hvcurveto
          62 -92 rlineto
          109 36 88 104 96 vvcurveto
          89 -70 56 -112 -40 -50 -9 -13 -32 vhcurveto
          465 -342 -84 callsubr
          endchar
        </CharString>
        <CharString name="brevehookabovecmb.short">
          147 2031 rmoveto
          7 25 30 4 34 hhcurveto
          59 34 -24 -39 -43 -43 -35 -62 -14 hvcurveto
          72 -90 rlineto
          113 32 75 81 94 vvcurveto
          95 -82 63 -123 -32 -44 -5 -9 -27 vhcurveto
          85 -607 -42 callsubr
        </CharString>
        <CharString name="brevetildecmb">
          601 1537 -84 callsubr
          -175 63 -63 callsubr
        </CharString>
        <CharString name="brevetildecmb.short">
          475 1861 -6 callgsubr
        </CharString>
        <CharString name="brokenbar">
          -499 561 770 53 callsubr
        </CharString>
        <CharString name="brokenbar.uc">
          -499 595 926 53 callsubr
        </CharString>
        <CharString name="bullet">
          -225 542 223 13 callsubr
        </CharString>
        <CharString name="bullet.uc">
          -225 576 381 13 callsubr
        </CharString>
        <CharString name="c">
          -122 666 1084 -92 callsubr
          endchar
        </CharString>
        <CharString name="cacute">
          -122 666 1084 -92 callsubr
          167 147 -77 callsubr
          endchar
        </CharString>
        <CharString name="caron">
          -128 825 1225 -81 callsubr
        </CharString>
        <CharString name="caroncmb">
          299 1225 -81 callsubr
        </CharString>
        <CharString name="caroncmb.short">
          168 1552 -86 callgsubr
        </CharString>
        <CharString name="carondotaccentcmb">
          107 1225 35 callgsubr
        </CharString>
        <CharString name="carondotaccentcmb.short">
          156 1539 34 callsubr
        </CharString>
        <CharString name="caronslovak">
          -198 633 1443 45 callsubr
          endchar
        </CharString>
        <CharString name="ccaron">
          -122 666 1084 -92 callsubr
          153 141 -81 callsubr
        </CharString>
        <CharString name="ccedilla">
          -122 1106 681 rmoveto
          6 0 0 18 vvcurveto
          203 -162 176 -278 -337 -226 -269 -375 -243 131 -177 235 -35 vhcurveto
          -73 -118 -21 -91 rlineto
          59 hlineto
          100 41 -17 -39 -39 -43 -22 -78 -46 -46 7 13 -38 hvcurveto
          -27 -130 rlineto
          -14 38 67 -10 60 hhcurveto
          161 111 86 125 91 -63 53 -110 2 hvcurveto
          63 100 216 26 168 155 40 206 rlinecurve
          -236 hlineto
          -111 -37 -89 -70 -120 hhcurveto
          -130 -86 100 162 250 127 174 181 132 77 -84 -109 3 hvcurveto
          endchar
        </CharString>
        <CharString name="ccedillaacute">
          -122 1151 1539 rmoveto
          -244 hlineto
          -283 -308 rlineto
          209 hlineto
          -437 -1364 rmoveto
          -21 -91 rlineto
          59 hlineto
          100 41 -17 -39 -39 -43 -22 -78 -46 -46 7 13 -38 hvcurveto
          -27 -130 rlineto
          -14 38 67 -10 60 hhcurveto
          161 111 86 125 91 -63 53 -110 2 hvcurveto
          63 100 216 26 168 155 40 206 rlinecurve
          -236 hlineto
          -111 -37 -89 -70 -120 hhcurveto
          -130 -86 100 162 250 127 174 181 132 77 -84 -109 3 hvcurveto
          236 hlineto
          6 0 0 18 vvcurveto
          203 -162 176 -278 -337 -226 -269 -375 -243 131 -177 235 -35 vhcurveto
          endchar
        </CharString>
        <CharString name="ccircumflex">
          -122 666 1084 -92 callsubr
          213 453 -61 callsubr
        </CharString>
        <CharString name="cdotaccent">
          -122 666 1084 -92 callsubr
          72 144 -71 callsubr
        </CharString>
        <CharString name="cedi">
          87 355 587 rmoveto
          352 197 288 236 17 vhcurveto
          3 2 0 4 hhcurveto
          -222 -1034 rlineto
          -142 46 -78 138 193 vvcurveto
          948 -158 rmoveto
          -259 hlineto
          -45 -129 -114 -97 -155 -9 rrcurveto
          -3 -3 0 1 -2 hvcurveto
          223 1038 129 -33 76 -99 8 -137 rlinecurve
          -6 0 -3 -1 -1 vhcurveto
          254 hlineto
          1 9 1 12 9 vvcurveto
          229 -173 199 -247 53 vhcurveto
          27 128 rlineto
          -151 hlineto
          -24 -114 rlineto
          -4 -3 0 -4 hhcurveto
          -417 -4 -327 -378 -527 vvcurveto
          -312 167 -227 268 -57 vhcurveto
          -24 -113 rlineto
          151 hlineto
          21 98 rlineto
          2 2 0 3 hhcurveto
          316 4 244 190 63 276 rrcurveto
          endchar
        </CharString>
        <CharString name="cedilla">
          -121 274 -224 -92 callgsubr
        </CharString>
        <CharString name="cedillacmb">
          -252 -224 -92 callgsubr
        </CharString>
        <CharString name="cent">
          87 1191 518 rmoveto
          -243 hlineto
          -104 -36 -88 -58 -118 hhcurveto
          -134 -97 98 179 251 136 195 191 119 92 -69 -106 8 hvcurveto
          239 hlineto
          15 -1 16 -2 14 vhcurveto
          -17 140 -103 124 -159 52 39 182 rcurveline
          -217 hlineto
          -33 -161 rlineto
          -321 -28 -222 -280 -367 vvcurveto
          -222 118 -162 187 -57 vhcurveto
          -43 -203 rlineto
          217 hlineto
          38 181 243 19 169 152 38 199 rlinecurve
          endchar
        </CharString>
        <CharString name="checyrillic">
          -20 callsubr
          endchar
        </CharString>
        <CharString name="chigreek">
          -85 854 -346 rmoveto
          57 38 6 8 29 hvcurveto
          40 188 rlineto
          -3 -16 -25 -3 -13 hhcurveto
          -74 -33 27 95 -31 hvcurveto
          -117 369 545 722 rlineto
          -248 hlineto
          -358 -492 rlineto
          -12 hlineto
          -101 323 rlineto
          128 -39 -68 48 -125 hhcurveto
          -43 -40 -5 -9 -34 hvcurveto
          -39 -189 rlineto
          4 15 26 3 15 hhcurveto
          70 27 -28 -89 30 hvcurveto
          127 -388 -539 -710 rlineto
          247 hlineto
          348 478 rlineto
          13 hlineto
          99 -318 rlineto
          -116 37 64 -49 128 hhcurveto
          endchar
        </CharString>
        <CharString name="circumflex">
          -128 892 0 callgsubr
        </CharString>
        <CharString name="circumflexacutecmb">
          338 1524 -66 callgsubr
          -119 347 rmoveto
          193 hlineto
          295 291 rlineto
          -220 hlineto
          endchar
        </CharString>
        <CharString name="circumflexacutecmb.short">
          16 callsubr
          43 50 8 callsubr
          -228 hlineto
          endchar
        </CharString>
        <CharString name="circumflexbelowcmb">
          -17 -165 -94 callsubr
        </CharString>
        <CharString name="circumflexcmb">
          359 0 callgsubr
        </CharString>
        <CharString name="circumflexcmb.short">
          414 1863 -94 callsubr
        </CharString>
        <CharString name="circumflexgravecmb">
          647 1570 -10 callsubr
          -137 -46 -66 callgsubr
          endchar
        </CharString>
        <CharString name="circumflexgravecmb.short">
          16 callsubr
          266 50 rmoveto
          -128 239 rlineto
          -206 hlineto
          157 -239 rlineto
          endchar
        </CharString>
        <CharString name="circumflexhookabovecmb">
          359 1752 -51 callsubr
        </CharString>
        <CharString name="circumflexhookabovecmb.short">
          16 callsubr
          23 162 rmoveto
          9 29 29 4 31 hhcurveto
          55 35 -25 -38 -45 -42 -36 -58 -16 hvcurveto
          67 -93 rlineto
          115 39 75 81 101 vvcurveto
          93 -77 60 -121 -38 -47 -7 -11 -25 vhcurveto
          endchar
        </CharString>
        <CharString name="circumflextildecmb">
          337 1517 rmoveto
          -193 hlineto
          -329 -292 rlineto
          214 hlineto
          195 173 rlineto
          6 hlineto
          121 -173 rlineto
          190 hlineto
          -130 375 -63 callsubr
        </CharString>
        <CharString name="circumflextildecmb.short">
          469 1861 -44 callsubr
        </CharString>
        <CharString name="colon">
          -654 73 callsubr
          155 724 37 callsubr
          endchar
        </CharString>
        <CharString name="colon.uc">
          -654 283 213 18 callsubr
          155 724 37 callsubr
          endchar
        </CharString>
        <CharString name="coloncurrency">
          87 990 1247 rmoveto
          7 6 0 6 hhcurveto
          45 58 -4 -7 52 hvcurveto
          -527 -953 -49 26 -42 33 -35 38 rlinecurve
          -84 147 rmoveto
          -14 44 -7 48 52 vvcurveto
          260 153 215 251 74 vhcurveto
          719 377 rmoveto
          -165 hlineto
          -82 -149 -48 10 -62 8 -58 5 rlinecurve
          70 126 rlineto
          -165 hlineto
          -67 -121 rlineto
          -510 -24 -305 -369 -441 vvcurveto
          -152 50 -133 88 -107 vhcurveto
          -231 -417 rlineto
          165 hlineto
          174 314 40 -30 45 -27 49 -23 rlinecurve
          -129 -234 rlineto
          166 hlineto
          101 183 rlineto
          -24 89 98 -13 105 hhcurveto
          47 75 7 6 24 hvcurveto
          48 225 rlineto
          -6 -32 -60 -7 -47 hhcurveto
          -83 -77 9 18 -68 hvcurveto
          endchar
        </CharString>
        <CharString name="comma">
          -655 163 -307 rmoveto
          250 547 82 callgsubr
          -199 -547 rlineto
          endchar
        </CharString>
        <CharString name="commaaccent">
          -128 385 -476 -41 callsubr
        </CharString>
        <CharString name="commabelowcmb">
          -225 -476 -41 callsubr
        </CharString>
        <CharString name="copyright">
          456 888 -146 rmoveto
          451 350 358 462 444 -322 314 -459 -450 -351 -359 -462 -443 323 -314 458 hvcurveto
          153 vmoveto
          -370 -255 248 356 375 282 293 363 372 253 -247 -358 -375 -282 -292 -363 hvcurveto
          380 763 rmoveto
          166 -1 -131 117 -189 hhcurveto
          -239 -174 -199 -271 -201 138 -140 200 176 129 95 158 38 hvcurveto
          -171 hlineto
          -72 -30 -54 -35 -79 hhcurveto
          -108 -69 78 124 181 101 137 134 90 68 -56 -82 4 hvcurveto
          endchar
        </CharString>
        <CharString name="cruzeiro">
          87 1104 -7 rmoveto
          47 224 rlineto
          -7 -38 -59 -6 -41 hhcurveto
          -45 -43 3 5 -40 hvcurveto
          50 233 rlineto
          175 37 84 81 142 hhcurveto
          40 50 -10 -13 22 hvcurveto
          50 225 rlineto
          8 -18 -39 5 -32 hhcurveto
          -120 -98 -65 -105 -53 hvcurveto
          -8 hlineto
          32 153 rlineto
          -202 hlineto
          -135 -627 rlineto
          -169 74 -101 139 185 vvcurveto
          332 254 241 354 103 138 -21 -23 53 vhcurveto
          48 222 rlineto
          29 -74 -154 23 -117 hhcurveto
          -515 -359 -337 -477 -399 326 -281 455 71 78 8 6 26 hvcurveto
          endchar
        </CharString>
        <CharString name="currency">
          87 472 651 rmoveto
          133 111 111 135 134 111 -111 -133 -133 -111 -111 -134 -135 -111 111 133 vhcurveto
          850 377 rmoveto
          -116 150 -225 -186 rlineto
          58 -73 -91 34 -99 hhcurveto
          -61 -58 -13 -23 -52 hvcurveto
          -106 134 -171 -143 104 -131 rlineto
          -53 -72 -32 -89 -96 vvcurveto
          -69 16 -66 29 -58 vhcurveto
          -222 -184 116 -151 226 187 rlineto
          -57 73 92 -35 99 hhcurveto
          61 57 13 23 52 hvcurveto
          105 -133 171 143 -102 130 rlineto
          53 72 31 89 96 vvcurveto
          69 -16 66 -29 58 vhcurveto
          endchar
        </CharString>
        <CharString name="cyrilliccentraldescender">
          -527 387 25 rmoveto
          -223 88 callgsubr
          223 hlineto
          endchar
        </CharString>
        <CharString name="cyrilliccentraldescendercap">
          -527 388 74 callgsubr
          endchar
        </CharString>
        <CharString name="cyrillicdescender">
          -198 354 -270 rmoveto
          231 hlineto
          100 32 callgsubr
          185 hlineto
          endchar
        </CharString>
        <CharString name="cyrillicdescender.short">
          -199 326 67 callsubr
          -360 hlineto
          -42 -204 rlineto
          129 hlineto
          endchar
        </CharString>
        <CharString name="cyrillicdescendercap">
          -198 360 30 callsubr
          endchar
        </CharString>
        <CharString name="cyrillicdescendercap.short">
          -198 307 -285 rmoveto
          235 hlineto
          106 508 rlineto
          -335 hlineto
          -46 -223 rlineto
          101 hlineto
          endchar
        </CharString>
        <CharString name="cyrillichook">
          -198 151 -342 rmoveto
          -2 7 47 -3 20 hhcurveto
          236 129 97 216 48 hvcurveto
          8 120 callgsubr
          -51 -45 -100 -7 -23 1 -3 hhcurveto
          endchar
        </CharString>
        <CharString name="cyrillichookcap">
          -198 138 -366 rmoveto
          -4 14 42 -3 20 hhcurveto
          263 119 93 246 51 77 callgsubr
          -4 hvcurveto
          endchar
        </CharString>
        <CharString name="cyrillictail">
          -198 257 121 callsubr
          12 59 callgsubr
          endchar
        </CharString>
        <CharString name="cyrillictailcap">
          -198 248 44 callsubr
          endchar
        </CharString>
        <CharString name="d">
          -1 482 -17 -4 callgsubr
        </CharString>
        <CharString name="dagger">
          -225 727 1088 rmoveto
          245 hlineto
          42 202 -36 callsubr
          57 267 rlineto
          -209 hlineto
          -56 -267 -36 callsubr
          -42 -202 119 callsubr
          -113 -530 rlineto
          208 hlineto
          endchar
        </CharString>
        <CharString name="daggerdbl">
          -225 904 767 rmoveto
          38 187 rlineto
          -247 hlineto
          22 102 22 101 rlineto
          247 hlineto
          40 187 -36 callsubr
          45 213 rlineto
          -209 hlineto
          -45 -213 -36 callsubr
          -39 -187 rlineto
          247 hlineto
          -22 -101 -22 -102 rlineto
          -247 hlineto
          -38 -187 rlineto
          245 hlineto
          -44 -209 rlineto
          208 hlineto
          45 209 rlineto
          endchar
        </CharString>
        <CharString name="dblgrave">
          -128 771 1232 -43 callgsubr
        </CharString>
        <CharString name="dblgravecmb">
          128 1232 -43 callgsubr
        </CharString>
        <CharString name="dblgravecmb.short">
          -10 1558 -40 callgsubr
          569 -300 rmoveto
          189 hlineto
          -161 300 rlineto
          -230 hlineto
          endchar
        </CharString>
        <CharString name="dcaron">
          244 1470 1443 45 callsubr
          -1206 -1460 -4 callgsubr
        </CharString>
        <CharString name="dcircumflexbelow">
          -1 482 -17 -96 callgsubr
          81 -353 -94 callsubr
        </CharString>
        <CharString name="dcommaaccent">
          -1 482 -17 -96 callgsubr
          -127 -664 -41 callsubr
        </CharString>
        <CharString name="dcroat">
          -1 572 188 rmoveto
          -138 -84 101 161 243 137 178 177 141 91 -105 -150 -241 -141 -187 -183 hvcurveto
          850 1157 rmoveto
          -108 hlineto
          21 98 rlineto
          -244 hlineto
          -21 -98 rlineto
          -237 hlineto
          -34 -160 rlineto
          236 hlineto
          -70 -324 rlineto
          -6 hlineto
          126 -34 -129 93 -164 hhcurveto
          -301 -230 -282 -377 -267 147 -171 234 140 124 71 108 69 hvcurveto
          5 hlineto
          -34 -162 rlineto
          242 hlineto
          252 1185 rlineto
          109 hlineto
          endchar
        </CharString>
        <CharString name="ddotaccent">
          -1 482 -17 -96 callgsubr
          710 1420 -101 callgsubr
        </CharString>
        <CharString name="ddotbelow">
          -1 482 -17 -96 callgsubr
          -39 -638 -101 callgsubr
        </CharString>
        <CharString name="decyrillic">
          21 785 195 rmoveto
          -455 hlineto
          3 17 56 62 46 95 36 126 rlinecurve
          -2 -5 108 372 1 6 rrcurveto
          352 hlineto
          283 194 rmoveto
          -805 hlineto
          1 6 -160 -566 2 6 -44 -160 -70 -112 -72 -41 rrcurveto
          -84 hlineto
          -100 -472 rlineto
          223 hlineto
          60 277 rlineto
          762 hlineto
          -59 -277 rlineto
          224 hlineto
          100 472 rlineto
          -162 hlineto
          endchar
        </CharString>
        <CharString name="decyrillic.1">
          -28 588 184 rmoveto
          -145 -94 117 170 1 hvcurveto
          229 2 126 162 179 hhcurveto
          145 90 -108 -165 -1 hvcurveto
          -229 -2 -128 -176 -173 hhcurveto
          42 869 rmoveto
          -311 -211 -238 -345 -292 189 -198 286 351 224 296 521 6 hvcurveto
          437 6 -199 252 -363 hhcurveto
          -121 -94 -31 -8 -23 hvcurveto
          -43 -211 rlineto
          28 57 96 18 85 hhcurveto
          221 143 -143 -236 13 hvcurveto
          -12 hlineto
          95 -64 -107 55 -129 hhcurveto
          endchar
        </CharString>
        <CharString name="degree">
          -456 550 841 rmoveto
          172 135 135 173 173 -135 135 -172 -172 -133 -135 -173 -173 133 -135 172 hvcurveto
          1 159 rmoveto
          -80 -69 68 81 83 69 67 80 83 66 -67 -83 -81 -66 -68 -83 hvcurveto
          endchar
        </CharString>
        <CharString name="deltagreek">
          -78 538 -22 rmoveto
          372 207 266 304 190 -87 129 -254 155 hvcurveto
          -115 65 -26 30 45 vvcurveto
          67 54 37 102 117 113 -32 -60 102 vhcurveto
          47 188 rlineto
          59 -76 -149 38 -154 hhcurveto
          -253 -155 -110 -178 -90 48 -79 105 -59 hvcurveto
          -1 -3 rlineto
          -1 vlineto
          -289 -43 -171 -201 -283 vvcurveto
          -263 188 -171 275 vhcurveto
          16 191 rmoveto
          -134 -96 99 153 235 140 141 174 137 88 -94 -152 -228 -130 -154 -179 hvcurveto
          endchar
        </CharString>
        <CharString name="dieresis">
          -128 566 1229 -105 callgsubr
        </CharString>
        <CharString name="dieresisacutecmb">
          153 1572 8 callgsubr
          -395 -641 -105 callgsubr
        </CharString>
        <CharString name="dieresisacutecmb.short">
          209 1863 8 callsubr
          -229 hlineto
          -338 -546 -35 callsubr
        </CharString>
        <CharString name="dieresisbelowcmb">
          -329 -430 6 callsubr
        </CharString>
        <CharString name="dieresiscaroncmb">
          22 1223 -47 callgsubr
          -271 321 rmoveto
          193 hlineto
          330 27 callgsubr
          endchar
        </CharString>
        <CharString name="dieresiscaroncmb.short">
          228 1855 11 callsubr
        </CharString>
        <CharString name="dieresiscmb">
          26 1229 -105 callgsubr
        </CharString>
        <CharString name="dieresiscmb.short">
          99 1597 -105 callgsubr
        </CharString>
        <CharString name="dieresisgravecmb">
          363 1570 -10 callsubr
          -164 -348 -105 callgsubr
        </CharString>
        <CharString name="dieresisgravecmb.short">
          432 1863 rmoveto
          -128 33 callsubr
          -155 -307 -35 callsubr
        </CharString>
        <CharString name="dieresismacroncmb">
          22 1223 -39 callsubr
        </CharString>
        <CharString name="dieresismacroncmb.short">
          94 1791 rmoveto
          -41 callgsubr
          609 267 rmoveto
          58 callgsubr
          670 hlineto
          -197 -129 rmoveto
          36 callgsubr
        </CharString>
        <CharString name="dieresistonosgreek">
          207 927 1227 -45 callgsubr
        </CharString>
        <CharString name="divide">
          87 1208 478 24 callsubr
        </CharString>
        <CharString name="divide.uc">
          87 1237 624 24 callsubr
        </CharString>
        <CharString name="djecyrillic">
          -31 473 899 rmoveto
          65 304 rlineto
          217 hlineto
          30 140 rlineto
          -217 hlineto
          23 107 rlineto
          -244 hlineto
          -23 -107 rlineto
          -143 hlineto
          -29 -140 rlineto
          143 hlineto
          -256 -1203 rlineto
          245 hlineto
          135 639 rlineto
          141 31 113 96 136 hhcurveto
          122 80 -72 -109 -27 -4 -30 -7 -33 hvcurveto
          -142 -651 -18 -82 -51 -43 -80 -1 rlinecurve
          -5 -43 0 1 -3 hvcurveto
          -45 -203 rlineto
          30 50 -1 30 hhcurveto
          210 119 99 211 46 hvcurveto
          154 711 rlineto
          9 43 5 43 40 vvcurveto
          179 -140 131 -193 -142 -128 -71 -112 -74 vhcurveto
          endchar
        </CharString>
        <CharString name="dlinebelow">
          -1 482 -17 -96 callgsubr
          314 -427 -79 callsubr
        </CharString>
        <CharString name="dollar">
          87 774 591 rmoveto
          121 -51 55 -53 -89 vvcurveto
          -118 -98 -87 -164 -4 vhcurveto
          8 687 rmoveto
          -106 44 -57 54 84 vvcurveto
          109 98 83 145 4 vhcurveto
          48 -426 rmoveto
          86 406 86 -32 54 -66 13 -92 rlinecurve
          242 hlineto
          -3 191 -138 157 -209 52 32 149 rcurveline
          -139 hlineto
          -28 -131 rlineto
          -6 -6 0 -6 hhcurveto
          -318 -209 -176 -249 -171 113 -134 201 -73 hvcurveto
          56 -20 -92 -434 -107 29 -70 72 -13 101 rlinecurve
          -247 hlineto
          9 -208 158 -156 226 -48 -29 -134 rcurveline
          138 hlineto
          25 119 rlineto
          6 5 0 5 hhcurveto
          323 225 173 276 183 -120 119 -227 84 hvcurveto
          endchar
        </CharString>
        <CharString name="dotaccent">
          -128 760 1228 -71 callsubr
        </CharString>
        <CharString name="dotaccentcmb">
          218 1228 -71 callsubr
        </CharString>
        <CharString name="dotaccentcmb.short">
          300 1608 -101 callgsubr
        </CharString>
        <CharString name="dotbelowcmb">
          -137 -450 -101 callgsubr
        </CharString>
        <CharString name="dotlessi">
          -32 callgsubr
          endchar
        </CharString>
        <CharString name="dotlessj">
          -745 510 1062 107 callsubr
          -237 -1106 rlineto
          -93 -20 -42 -38 -86 hhcurveto
          -22 -16 2 3 -19 hvcurveto
          -43 -196 rlineto
          -5 32 49 -3 28 hhcurveto
          204 1 132 100 43 200 rrcurveto
          endchar
        </CharString>
        <CharString name="dotmacroncmb">
          217 1211 -6 callsubr
        </CharString>
        <CharString name="dotmacroncmb.short">
          290 1563 14 callsubr
        </CharString>
        <CharString name="doublebreve">
          -450 345 1741 rmoveto
          -5 -19 -2 -19 -17 vvcurveto
          -127 45 callgsubr
          -183 hlineto
          -73 -18 -67 -46 -91 hhcurveto
          -79 -48 51 callsubr
          5 96 callsubr
          127 -106 80 callgsubr
          -104 -158 -34 vhcurveto
          endchar
        </CharString>
        <CharString name="doublebreve.short">
          -450 424 2117 rmoveto
          -4 -19 -2 -18 -17 vvcurveto
          -128 45 callgsubr
          -184 hlineto
          -73 -17 -68 -46 -91 hhcurveto
          -80 -46 28 callgsubr
          endchar
        </CharString>
        <CharString name="dzecyrillic">
          -183 182 -100 callgsubr
          endchar
        </CharString>
        <CharString name="dzhecyrillic">
          -60 970 hmoveto
          225 1062 40 callgsubr
          354 hlineto
          -59 -277 rlineto
          223 hlineto
          60 277 rlineto
          endchar
        </CharString>
        <CharString name="e">
          -90 365 640 -107 callsubr
          endchar
        </CharString>
        <CharString name="eacute">
          -90 365 640 -107 callsubr
          257 1253 -77 callsubr
          endchar
        </CharString>
        <CharString name="ebreve">
          -90 365 640 -107 callsubr
          -139 1559 -67 callgsubr
        </CharString>
        <CharString name="ecaron">
          -90 365 640 -107 callsubr
          243 1247 -81 callsubr
        </CharString>
        <CharString name="ecedilla">
          -90 365 640 rmoveto
          142 37 102 107 143 hhcurveto
          150 68 -104 -115 -10 0 -12 -1 -8 hvcurveto
          224 -166 rmoveto
          9 49 3 60 49 vvcurveto
          277 -175 175 -271 -325 -225 -277 -355 -253 131 -180 238 -35 vhcurveto
          -72 -117 -21 -91 rlineto
          59 hlineto
          100 41 -17 -39 -39 -43 -22 -78 -46 -46 7 13 -38 hvcurveto
          -27 -130 rlineto
          -14 38 67 -10 60 hhcurveto
          161 111 86 125 91 -63 53 -110 2 hvcurveto
          63 100 212 24 162 141 50 187 rlinecurve
          -233 hlineto
          -96 -39 -88 -63 -124 hhcurveto
          -142 -90 104 161 11 0 12 1 11 hvcurveto
          endchar
        </CharString>
        <CharString name="ecedillabreve">
          -90 950 1537 rmoveto
          -114 -26 -90 -69 -108 hhcurveto
          -92 -58 52 86 16 3 16 3 13 hvcurveto
          -159 hlineto
          -5 -22 -4 -22 -24 vvcurveto
          -148 124 -103 164 217 150 122 197 43 vhcurveto
          -747 -897 rmoveto
          142 37 102 107 143 hhcurveto
          150 68 -104 -115 -10 0 -12 -1 -8 hvcurveto
          -463 -773 rmoveto
          -21 -91 rlineto
          59 hlineto
          100 41 -17 -39 -39 -43 -22 -78 -46 -46 7 13 -38 hvcurveto
          -27 -130 rlineto
          -14 38 67 -10 60 hhcurveto
          161 111 86 125 91 -63 53 -110 2 hvcurveto
          63 100 212 24 162 141 50 187 rlinecurve
          -233 hlineto
          -96 -39 -88 -63 -124 hhcurveto
          -142 -90 104 161 11 0 12 1 11 hvcurveto
          750 hlineto
          9 49 3 60 49 vvcurveto
          277 -175 175 -271 -325 -225 -277 -355 -253 131 -180 238 -35 vhcurveto
          endchar
        </CharString>
        <CharString name="ecircumflex">
          -90 365 640 -107 callsubr
          303 1559 -61 callsubr
        </CharString>
        <CharString name="ecircumflexacute">
          -90 365 640 -107 callsubr
          281 1539 -66 callgsubr
          -119 347 rmoveto
          193 hlineto
          295 291 rlineto
          -220 hlineto
          endchar
        </CharString>
        <CharString name="ecircumflexbelow">
          -90 365 640 -107 callsubr
          53 -143 -94 callsubr
        </CharString>
        <CharString name="ecircumflexdotbelow">
          -90 365 640 -107 callsubr
          303 1559 -78 callsubr
          -570 -1675 -101 callgsubr
        </CharString>
        <CharString name="ecircumflexgrave">
          -90 365 640 -107 callsubr
          590 1585 -10 callsubr
          -137 -46 -66 callgsubr
          endchar
        </CharString>
        <CharString name="ecircumflexhookabove">
          -90 365 640 -107 callsubr
          302 1767 -51 callsubr
        </CharString>
        <CharString name="ecircumflextilde">
          -90 365 640 -107 callsubr
          280 1532 rmoveto
          -193 hlineto
          -329 -292 rlineto
          214 hlineto
          195 173 rlineto
          6 hlineto
          121 -173 rlineto
          190 hlineto
          -130 375 -63 callsubr
        </CharString>
        <CharString name="ecyrillic">
          -4 callsubr
          endchar
        </CharString>
        <CharString name="edblgrave">
          -90 365 640 -107 callsubr
          72 1254 -43 callgsubr
        </CharString>
        <CharString name="edieresis">
          -90 365 640 -107 callsubr
          -30 1251 -105 callgsubr
        </CharString>
        <CharString name="edotaccent">
          -90 365 640 -107 callsubr
          162 1250 -71 callsubr
        </CharString>
        <CharString name="edotbelow">
          -90 365 640 -107 callsubr
          -67 -428 -101 callgsubr
        </CharString>
        <CharString name="efcyrillic">
          335 748 -348 rmoveto
          70 330 rlineto
          422 6 281 258 381 vvcurveto
          264 -186 179 -283 11 vhcurveto
          70 328 rlineto
          -242 hlineto
          -70 -325 rlineto
          -421 -6 -281 -258 -380 vvcurveto
          -265 185 -179 284 -11 vhcurveto
          -71 -333 rlineto
          764 951 rmoveto
          -240 -169 -175 -243 -9 vhcurveto
          151 706 rlineto
          163 -5 98 -106 -171 vvcurveto
          -911 -140 rmoveto
          240 169 175 242 10 vhcurveto
          -151 -707 rlineto
          -162 5 -98 106 171 vvcurveto
          endchar
        </CharString>
        <CharString name="egrave">
          -90 365 640 -107 callsubr
          233 1253 -37 callgsubr
        </CharString>
        <CharString name="ehookabove">
          -90 365 640 -107 callsubr
          18 1483 -65 callsubr
        </CharString>
        <CharString name="eight">
          95 1229 -29 callsubr
        </CharString>
        <CharString name="eight.dnum">
          -498 633 191 -68 callgsubr
        </CharString>
        <CharString name="eight.numr">
          -498 792 937 -68 callgsubr
        </CharString>
        <CharString name="eight.subs">
          -498 561 -149 -68 callgsubr
        </CharString>
        <CharString name="eight.sups">
          -498 868 1295 -68 callgsubr
        </CharString>
        <CharString name="eight.tnum">
          87 1225 -29 callsubr
        </CharString>
        <CharString name="einvertedbreve">
          -90 365 640 -107 callsubr
          475 1233 -57 callgsubr
        </CharString>
        <CharString name="elcyrillic">
          -88 467 487 -52 callsubr
        </CharString>
</ttFont>
